<svg width="35" height="35" viewBox="0 0 35 35" fill="none" xmlns="http://www.w3.org/2000/svg">
<g clip-path="url(#clip0_420_756)">
<path d="M18.0469 6.01562V3.72969C18.6813 3.50547 19.1406 2.90391 19.1406 2.1875C19.1406 1.28516 18.4023 0.546875 17.5 0.546875C16.5977 0.546875 15.8594 1.28516 15.8594 2.1875C15.8594 2.89844 16.3188 3.5 16.9531 3.72969V6.01562H18.0469ZM17.5 1.64062C17.8008 1.64062 18.0469 1.88672 18.0469 2.1875C18.0469 2.48828 17.8008 2.73438 17.5 2.73438C17.1992 2.73438 16.9531 2.48828 16.9531 2.1875C16.9531 1.88672 17.1992 1.64062 17.5 1.64062Z" fill="#00687B"/>
<path d="M15.5641 14.2188H14.4703C14.2242 14.2188 14.0055 14.3883 13.9398 14.6289L12.3211 20.7812H13.4531L14.0273 18.5938H16.007L16.5812 20.7812H17.7133L16.0945 14.6289C16.0289 14.3883 15.8156 14.2188 15.5641 14.2188ZM14.3172 17.5L14.8914 15.3125H15.143L15.7172 17.5H14.3172Z" fill="#00687B"/>
<path d="M18.8453 15.3125H20.2125V19.6875H18.8453V20.7812H22.6734V19.6875H21.3062V15.3125H22.6734V14.2188H18.8453V15.3125Z" fill="#00687B"/>
<path d="M32.8125 15.8594C32.1016 15.8594 31.5 16.3188 31.2703 16.9531H28.9844V18.0469H31.2703C31.4945 18.6813 32.0961 19.1406 32.8125 19.1406C33.7148 19.1406 34.4531 18.4023 34.4531 17.5C34.4531 16.5977 33.7148 15.8594 32.8125 15.8594ZM32.8125 18.0469C32.5117 18.0469 32.2656 17.8008 32.2656 17.5C32.2656 17.1992 32.5117 16.9531 32.8125 16.9531C33.1133 16.9531 33.3594 17.1992 33.3594 17.5C33.3594 17.8008 33.1133 18.0469 32.8125 18.0469Z" fill="#00687B"/>
<path d="M24.4289 9.75623C22.1977 7.76013 19.3156 6.84138 16.3133 7.17498C11.4242 7.71638 7.56875 11.6758 7.14766 16.5812C6.75391 21.175 9.42266 25.4625 13.6719 27.1468V30.6195C13.6719 32.7304 15.3891 34.4476 17.5 34.4476C19.6109 34.4476 21.3281 32.7304 21.3281 30.6195V27.1468C25.2711 25.5828 27.8906 21.7547 27.8906 17.4945C27.8906 14.5414 26.6273 11.7195 24.4289 9.75076V9.75623ZM17.5 33.3594C16.3789 33.3594 15.4219 32.6812 14.9953 31.7187H19.9992C19.5781 32.6812 18.6156 33.3594 17.4945 33.3594H17.5ZM20.2344 30.625H14.7656V28.9844H20.2344V30.625ZM20.6008 26.2554C20.382 26.332 20.2344 26.5398 20.2344 26.7695V27.8906H14.7656V26.7695C14.7656 26.5398 14.618 26.332 14.3992 26.2554C10.407 24.8445 7.875 20.9015 8.23594 16.6742C8.61328 12.2828 12.0586 8.74451 16.4336 8.25779C16.7945 8.21951 17.1555 8.19763 17.5109 8.19763C19.8023 8.19763 21.968 9.01794 23.6961 10.5656C25.6648 12.3265 26.7969 14.8531 26.7969 17.4945C26.7969 21.4211 24.3086 24.9375 20.6008 26.25V26.2554Z" fill="#00687B"/>
<path d="M6.01562 16.9531H3.72969C3.50547 16.3188 2.90391 15.8594 2.1875 15.8594C1.28516 15.8594 0.546875 16.5977 0.546875 17.5C0.546875 18.4023 1.28516 19.1406 2.1875 19.1406C2.89844 19.1406 3.5 18.6813 3.72969 18.0469H6.01562V16.9531ZM2.1875 18.0469C1.88672 18.0469 1.64062 17.8008 1.64062 17.5C1.64062 17.1992 1.88672 16.9531 2.1875 16.9531C2.48828 16.9531 2.73438 17.1992 2.73438 17.5C2.73438 17.8008 2.48828 18.0469 2.1875 18.0469Z" fill="#00687B"/>
<path d="M27.6281 26.857L26.0039 25.2328L25.2328 26.0039L26.8516 27.6226C26.7477 27.8414 26.6875 28.0765 26.6875 28.3281C26.6875 28.7656 26.857 29.1758 27.1688 29.4875C27.4805 29.7992 27.8906 29.9687 28.3281 29.9687C28.7656 29.9687 29.1813 29.7992 29.4875 29.4875C29.7938 29.1758 29.9688 28.7656 29.9688 28.3281C29.9688 27.8906 29.7992 27.4804 29.4875 27.1687C29.0008 26.682 28.2352 26.5836 27.6281 26.857ZM28.7109 28.7164C28.5031 28.9242 28.1477 28.9242 27.9399 28.7164C27.8359 28.6125 27.7813 28.4758 27.7813 28.3281C27.7813 28.1804 27.8359 28.0437 27.9399 27.9398C28.0438 27.8359 28.1805 27.7812 28.3281 27.7812C28.4758 27.7812 28.6125 27.8359 28.7164 27.9398C28.8203 28.0437 28.875 28.1804 28.875 28.3281C28.875 28.4758 28.8203 28.6125 28.7164 28.7164H28.7109Z" fill="#00687B"/>
<path d="M5.5125 5.51249C5.20078 5.82421 5.03125 6.23436 5.03125 6.67186C5.03125 7.10936 5.20078 7.51952 5.5125 7.83124C5.82422 8.14296 6.23438 8.31249 6.67188 8.31249C6.91797 8.31249 7.15859 8.25233 7.37734 8.14843L8.99609 9.76718L9.76719 8.99608L8.14844 7.37733C8.25234 7.15858 8.3125 6.92343 8.3125 6.67186C8.3125 6.23436 8.14297 5.82421 7.83125 5.51249C7.20781 4.89452 6.13047 4.89452 5.5125 5.51249ZM7.06016 7.06014C6.85234 7.26796 6.49141 7.26796 6.28906 7.06014C6.18516 6.95624 6.13047 6.81952 6.13047 6.67186C6.13047 6.52421 6.18516 6.38749 6.28906 6.28358C6.39297 6.17968 6.52969 6.12499 6.67734 6.12499C6.825 6.12499 6.96172 6.17968 7.06563 6.28358C7.16953 6.38749 7.22422 6.52421 7.22422 6.67186C7.22422 6.81952 7.16953 6.95624 7.06563 7.06014H7.06016Z" fill="#00687B"/>
<path d="M26.0094 9.76718L27.6281 8.14843C27.8469 8.25233 28.082 8.31249 28.3336 8.31249C28.7711 8.31249 29.1812 8.14296 29.493 7.83124C29.8047 7.51952 29.9742 7.10936 29.9742 6.67186C29.9742 6.23436 29.8047 5.81874 29.493 5.51249C28.875 4.89452 27.7922 4.89452 27.1742 5.51249C26.8625 5.82421 26.693 6.23436 26.693 6.67186C26.693 6.91796 26.7531 7.15858 26.857 7.37733L25.2383 8.99608L26.0094 9.76718ZM27.9453 6.28905C28.0492 6.18514 28.1859 6.13046 28.3336 6.13046C28.4812 6.13046 28.618 6.18514 28.7219 6.28905C28.8258 6.39296 28.8805 6.52968 28.8805 6.67733C28.8805 6.82499 28.8258 6.96171 28.7219 7.06561C28.5141 7.27343 28.1586 7.27343 27.9508 7.06561C27.8469 6.96171 27.7922 6.82499 27.7922 6.67733C27.7922 6.52968 27.8469 6.39296 27.9508 6.28905H27.9453Z" fill="#00687B"/>
<path d="M8.99063 25.2328L7.36641 26.857C6.75938 26.5836 5.99376 26.682 5.50704 27.1687C5.19532 27.4804 5.02579 27.8906 5.02579 28.3281C5.02579 28.7656 5.19532 29.1812 5.50704 29.4875C5.81876 29.7937 6.22891 29.9687 6.66641 29.9687C7.10391 29.9687 7.51407 29.7992 7.82579 29.4875C8.13751 29.1758 8.30704 28.7656 8.30704 28.3281C8.30704 28.082 8.24688 27.8414 8.14298 27.6226L9.76173 26.0039L8.99063 25.2328ZM7.05469 28.7109C6.84688 28.9187 6.48594 28.9187 6.2836 28.7109C6.17969 28.607 6.12501 28.4703 6.12501 28.3226C6.12501 28.175 6.17969 28.0383 6.2836 27.9344C6.38751 27.8304 6.52422 27.7758 6.67188 27.7758C6.81954 27.7758 6.95626 27.8304 7.06016 27.9344C7.16407 28.0383 7.21876 28.175 7.21876 28.3226C7.21876 28.4703 7.16407 28.607 7.06016 28.7109H7.05469Z" fill="#00687B"/>
</g>
<defs>
<clipPath id="clip0_420_756">
<rect width="35" height="35" fill="white"/>
</clipPath>
</defs>
</svg>
