<svg width="35" height="35" viewBox="0 0 35 35" fill="none" xmlns="http://www.w3.org/2000/svg">
<g clip-path="url(#clip0_420_740)">
<path d="M14.2415 26.8334H20.5771C22.0967 26.8334 23.3333 25.5804 23.3333 24.0398C23.3333 23.0662 22.8287 22.1667 22.0226 21.6627C21.7671 19.9582 20.3163 18.6667 18.5862 18.6667C17.3612 18.6667 16.247 19.3119 15.6205 20.3484C15.5237 20.3327 15.4257 20.3245 15.3271 20.3245C14.4748 20.3245 13.7556 20.9114 13.5415 21.7117C12.4454 22.0197 11.6661 23.0283 11.6661 24.2241C11.6661 25.6632 12.8211 26.8339 14.2409 26.8339L14.2415 26.8334ZM14.1137 22.7874C14.4142 22.7599 14.6434 22.4986 14.6434 22.197C14.6434 21.8074 14.9497 21.4906 15.3271 21.4906C15.4367 21.4906 15.5417 21.5174 15.6392 21.5699C15.785 21.6475 15.9559 21.6598 16.1117 21.6049C16.2668 21.5495 16.3911 21.4311 16.4541 21.2783C16.8175 20.4004 17.6546 19.8328 18.5862 19.8328C19.8088 19.8328 20.8215 20.811 20.8921 22.0599C20.9043 22.2746 21.0338 22.4659 21.2292 22.5564C21.7986 22.82 22.1661 23.4016 22.1661 24.0392C22.1661 24.9364 21.4527 25.6661 20.5765 25.6661H14.2409C13.4645 25.6661 12.8327 25.0192 12.8327 24.2229C12.8327 23.471 13.3834 22.8533 14.1132 22.7868L14.1137 22.7874Z" fill="#00687B"/>
<path d="M1.75 25.0833C2.5095 25.0833 3.15117 24.5939 3.39267 23.9167H5.86308C5.92433 25.1428 6.17283 26.3177 6.58525 27.4167H4.08333C3.43992 27.4167 2.91667 27.9399 2.91667 28.5833V31.024C2.23942 31.2655 1.75 31.9072 1.75 32.6667C1.75 33.6315 2.53517 34.4167 3.5 34.4167C4.46483 34.4167 5.25 33.6315 5.25 32.6667C5.25 31.9072 4.76058 31.2655 4.08333 31.024V28.5833H7.09567C9.02125 32.3837 12.9564 35 17.5 35C22.0436 35 25.9787 32.3837 27.9043 28.5833H30.9167V31.024C30.2394 31.2655 29.75 31.9072 29.75 32.6667C29.75 33.6315 30.5352 34.4167 31.5 34.4167C32.4648 34.4167 33.25 33.6315 33.25 32.6667C33.25 31.9072 32.7606 31.2655 32.0833 31.024V28.5833C32.0833 27.9399 31.5601 27.4167 30.9167 27.4167H28.4147C28.8272 26.3177 29.0763 25.1428 29.1369 23.9167H31.6073C31.8488 24.5939 32.4905 25.0833 33.25 25.0833C34.2148 25.0833 35 24.2982 35 23.3333C35 22.3685 34.2148 21.5833 33.25 21.5833C32.4905 21.5833 31.8488 22.0728 31.6073 22.75H29.1369C29.0757 21.5238 28.8272 20.349 28.4147 19.25H30.9167C31.5601 19.25 32.0833 18.7267 32.0833 18.0833V15.6427C32.7606 15.4012 33.25 14.7595 33.25 14C33.25 13.0352 32.4648 12.25 31.5 12.25C30.5352 12.25 29.75 13.0352 29.75 14C29.75 14.7595 30.2394 15.4012 30.9167 15.6427V18.0833H27.9043C27.3257 16.9412 26.5714 15.904 25.6667 15.0156V8.16667C25.6667 5.98733 24.8167 3.93692 23.2732 2.39342C21.7297 0.849917 19.6793 0 17.5 0C12.9967 0 9.33333 3.66333 9.33333 8.16667V15.0156C8.42858 15.904 7.67433 16.9412 7.09567 18.0833H4.08333V15.6427C4.76058 15.4012 5.25 14.7595 5.25 14C5.25 13.0352 4.46483 12.25 3.5 12.25C2.53517 12.25 1.75 13.0352 1.75 14C1.75 14.7595 2.23942 15.4012 2.91667 15.6427V18.0833C2.91667 18.7267 3.43992 19.25 4.08333 19.25H6.58525C6.17283 20.349 5.92375 21.5238 5.86308 22.75H3.39267C3.15117 22.0728 2.5095 21.5833 1.75 21.5833C0.785167 21.5833 0 22.3685 0 23.3333C0 24.2982 0.785167 25.0833 1.75 25.0833ZM3.5 33.25C3.178 33.25 2.91667 32.9887 2.91667 32.6667C2.91667 32.3447 3.178 32.0833 3.5 32.0833C3.822 32.0833 4.08333 32.3447 4.08333 32.6667C4.08333 32.9887 3.822 33.25 3.5 33.25ZM31.5 33.25C31.178 33.25 30.9167 32.9887 30.9167 32.6667C30.9167 32.3447 31.178 32.0833 31.5 32.0833C31.822 32.0833 32.0833 32.3447 32.0833 32.6667C32.0833 32.9887 31.822 33.25 31.5 33.25ZM31.5 13.4167C31.822 13.4167 32.0833 13.678 32.0833 14C32.0833 14.322 31.822 14.5833 31.5 14.5833C31.178 14.5833 30.9167 14.322 30.9167 14C30.9167 13.678 31.178 13.4167 31.5 13.4167ZM3.5 13.4167C3.822 13.4167 4.08333 13.678 4.08333 14C4.08333 14.322 3.822 14.5833 3.5 14.5833C3.178 14.5833 2.91667 14.322 2.91667 14C2.91667 13.678 3.178 13.4167 3.5 13.4167ZM33.25 22.75C33.572 22.75 33.8333 23.0113 33.8333 23.3333C33.8333 23.6553 33.572 23.9167 33.25 23.9167C32.928 23.9167 32.6667 23.6553 32.6667 23.3333C32.6667 23.0113 32.928 22.75 33.25 22.75ZM10.5 8.16667C10.5 4.30675 13.6401 1.16667 17.5 1.16667C19.3678 1.16667 21.1254 1.89525 22.4484 3.21825C23.7714 4.54183 24.5 6.29883 24.5 8.16667V14.0222C24.1272 13.741 23.7387 13.4808 23.3333 13.2452V8.16667C23.3333 4.95017 20.7165 2.33333 17.5 2.33333C14.2835 2.33333 11.6667 4.95017 11.6667 8.16667V13.2452C11.2612 13.4808 10.8727 13.741 10.5 14.0222V8.16667ZM22.1667 12.6472C20.7363 12.0202 19.1596 11.6667 17.5 11.6667C15.8404 11.6667 14.2637 12.0202 12.8333 12.6472V8.16667C12.8333 5.59358 14.9269 3.5 17.5 3.5C20.0731 3.5 22.1667 5.59358 22.1667 8.16667V12.6472ZM17.5 12.8333C23.2896 12.8333 28 17.5437 28 23.3333C28 29.1229 23.2896 33.8333 17.5 33.8333C11.7104 33.8333 7 29.1229 7 23.3333C7 17.5437 11.7104 12.8333 17.5 12.8333ZM1.75 22.75C2.072 22.75 2.33333 23.0113 2.33333 23.3333C2.33333 23.6553 2.072 23.9167 1.75 23.9167C1.428 23.9167 1.16667 23.6553 1.16667 23.3333C1.16667 23.0113 1.428 22.75 1.75 22.75Z" fill="#00687B"/>
</g>
<defs>
<clipPath id="clip0_420_740">
<rect width="35" height="35" fill="white"/>
</clipPath>
</defs>
</svg>
