<svg width="35" height="35" viewBox="0 0 35 35" fill="none" xmlns="http://www.w3.org/2000/svg">
<g clip-path="url(#clip0_420_774)">
<path d="M22.8703 23.8737L17.7734 20.9308C17.6903 20.8828 17.596 20.8575 17.5 20.8575C17.404 20.8575 17.3097 20.8828 17.2266 20.9308L12.1297 23.8737C12.0466 23.9216 11.9775 23.9905 11.9295 24.0736C11.8815 24.1567 11.8562 24.2509 11.8562 24.3469V30.2174C11.8563 30.3135 11.8815 30.4078 11.9295 30.491C11.9775 30.5742 12.0465 30.6433 12.1297 30.6914L17.2266 33.6336C17.3096 33.6818 17.404 33.7072 17.5 33.7072C17.596 33.7072 17.6904 33.6818 17.7734 33.6336L22.8703 30.6914C22.9534 30.6433 23.0225 30.5742 23.0705 30.491C23.1185 30.4078 23.1437 30.3135 23.1437 30.2174V24.3469C23.1438 24.2509 23.1185 24.1567 23.0705 24.0736C23.0225 23.9905 22.9534 23.9216 22.8703 23.8737ZM17.5 22.0362L21.5031 24.3469L17.5 26.6584L13.4969 24.3469L17.5 22.0362ZM12.95 25.2941L16.9531 27.6055V32.2131L12.95 29.9017V25.2941ZM22.05 29.9017L18.0469 32.2131V27.6055L22.05 25.2941V29.9017Z" fill="#00687B"/>
<path d="M9.81386 12.7021C9.90963 12.7025 10.0038 12.6773 10.0866 12.6292L12.409 11.289L17.2266 14.0729C17.3096 14.1212 17.404 14.1465 17.5 14.1465C17.596 14.1465 17.6904 14.1212 17.7734 14.0729L22.591 11.2919L24.9134 12.6321C24.9962 12.6802 25.0904 12.7054 25.1861 12.705C25.3067 12.7053 25.424 12.6658 25.5197 12.5925C25.6155 12.5193 25.6844 12.4164 25.7156 12.3C25.7469 12.1836 25.7388 12.0601 25.6927 11.9487C25.6465 11.8373 25.5648 11.7443 25.4603 11.6842L23.1438 10.3447V4.78263C23.1437 4.68658 23.1185 4.59224 23.0705 4.50905C23.0225 4.42586 22.9535 4.35675 22.8703 4.30867L17.7734 1.36648C17.6903 1.31848 17.596 1.29321 17.5 1.29321C17.404 1.29321 17.3097 1.31848 17.2266 1.36648L12.1297 4.30867C12.0466 4.35675 11.9775 4.42586 11.9295 4.50905C11.8815 4.59224 11.8563 4.68658 11.8563 4.78263V10.3447L9.53969 11.682C9.4352 11.7421 9.35352 11.8351 9.30734 11.9465C9.26117 12.0579 9.25309 12.1814 9.28436 12.2978C9.31563 12.4142 9.3845 12.5171 9.48026 12.5903C9.57602 12.6636 9.6933 12.7024 9.81386 12.7021ZM20.4597 8.79304C20.3974 8.75713 20.3287 8.73384 20.2575 8.72448C20.1863 8.71512 20.1139 8.71989 20.0445 8.73851C19.9751 8.75713 19.91 8.78924 19.853 8.833C19.796 8.87676 19.7482 8.93132 19.7123 8.99356C19.6764 9.0558 19.6531 9.12451 19.6437 9.19575C19.6344 9.267 19.6391 9.33939 19.6578 9.40879C19.6764 9.47819 19.7085 9.54325 19.7523 9.60024C19.796 9.65724 19.8506 9.70505 19.9128 9.74096L21.4995 10.6575L18.0469 12.6489V8.04054L20.8819 6.40429L22.0485 5.72908V9.71252L20.4597 8.79304ZM17.5 2.47117L21.5031 4.78263L17.5 7.09336L13.4969 4.78263L17.5 2.47117ZM12.95 5.72908L14.1167 6.40429L16.9517 8.04054V12.6489L13.5013 10.6568L15.0879 9.74023C15.1502 9.70432 15.2047 9.65651 15.2485 9.59951C15.2922 9.54252 15.3243 9.47746 15.343 9.40806C15.3616 9.33866 15.3664 9.26627 15.357 9.19503C15.3476 9.12378 15.3243 9.05508 15.2884 8.99283C15.2525 8.93059 15.2047 8.87603 15.1477 8.83227C15.0907 8.78851 15.0257 8.7564 14.9563 8.73778C14.8869 8.71916 14.8145 8.7144 14.7432 8.72375C14.672 8.73311 14.6033 8.75641 14.541 8.79231L12.95 9.71252V5.72908Z" fill="#00687B"/>
<path d="M12.8195 22.4226C12.9023 22.4707 12.9964 22.4959 13.0922 22.4955C13.2127 22.4958 13.33 22.4563 13.4258 22.383C13.5215 22.3098 13.5904 22.2069 13.6217 22.0905C13.653 21.9741 13.6449 21.8505 13.5987 21.7392C13.5525 21.6278 13.4708 21.5348 13.3664 21.4747L11.2875 20.2759V14.7292C11.2875 14.6331 11.2622 14.5388 11.2142 14.4556C11.1662 14.3724 11.0972 14.3033 11.0141 14.2552L5.91718 11.3123C5.83405 11.2643 5.73974 11.239 5.64375 11.239C5.54775 11.239 5.45344 11.2643 5.37031 11.3123L0.273434 14.2516C0.189759 14.2999 0.120385 14.3696 0.0723587 14.4535C0.0243327 14.5374 -0.000633609 14.6325 -3.62502e-06 14.7292V20.5997C-1.11257e-05 20.6956 0.0252582 20.7899 0.0732606 20.873C0.121263 20.956 0.190304 21.025 0.273434 21.0729L5.37031 24.0158C5.45337 24.064 5.54771 24.0894 5.64375 24.0894C5.73979 24.0894 5.83412 24.064 5.91718 24.0158L10.7443 21.2289L12.8195 22.4226ZM5.64375 12.4141L9.64687 14.7255L5.64375 17.0362L1.64062 14.7292L5.64375 12.4141ZM1.09375 15.6727L2.26041 16.3472L5.09687 17.9842V22.591L1.09375 20.2796V15.6727ZM6.19062 22.591V17.9842L9.02562 16.3472L10.1923 15.6727V19.6445L8.32635 18.5675C8.20065 18.495 8.05129 18.4754 7.91112 18.513C7.77096 18.5506 7.65148 18.6423 7.57896 18.768C7.50643 18.8937 7.48682 19.0431 7.52443 19.1832C7.56203 19.3234 7.65377 19.4429 7.77948 19.5154L9.64906 20.5946L6.19062 22.591Z" fill="#00687B"/>
<path d="M34.7266 14.2515L29.6297 11.3086C29.5465 11.2606 29.4522 11.2354 29.3562 11.2354C29.2602 11.2354 29.1659 11.2606 29.0828 11.3086L23.9896 14.2515C23.9064 14.2996 23.8374 14.3687 23.7894 14.4519C23.7414 14.5351 23.7162 14.6295 23.7161 14.7255V20.2759L21.6373 21.4761C21.5328 21.5363 21.4511 21.6293 21.4049 21.7406C21.3588 21.852 21.3507 21.9755 21.382 22.0919C21.4132 22.2084 21.4821 22.3112 21.5779 22.3844C21.6736 22.4577 21.7909 22.4972 21.9115 22.497C22.0072 22.4973 22.1014 22.4722 22.1842 22.424L24.2594 21.2267L29.0865 24.0136C29.1695 24.0618 29.2638 24.0872 29.3599 24.0872C29.4559 24.0872 29.5503 24.0618 29.6333 24.0136L34.7302 21.0707C34.8129 21.0222 34.8813 20.9528 34.9287 20.8695C34.976 20.7862 35.0006 20.6919 35 20.596V14.7291C35.0006 14.6325 34.9757 14.5374 34.9276 14.4535C34.8796 14.3696 34.8102 14.2999 34.7266 14.2515ZM29.3562 12.414L33.3594 14.7255L29.3562 17.0362L25.3531 14.7291L29.3562 12.414ZM27.4167 18.7673C27.3808 18.7051 27.333 18.6506 27.2761 18.6069C27.2191 18.5632 27.1541 18.5311 27.0847 18.5126C27.0154 18.494 26.9431 18.4893 26.8719 18.4987C26.8007 18.5082 26.7321 18.5315 26.67 18.5675L24.8062 19.6445V15.6727L25.9729 16.3472L28.8079 17.9841V22.591L25.348 20.5938L27.2176 19.5147C27.2797 19.4787 27.3342 19.4308 27.3778 19.3737C27.4215 19.3167 27.4534 19.2516 27.4719 19.1822C27.4904 19.1128 27.4951 19.0404 27.4856 18.9692C27.4761 18.898 27.4527 18.8294 27.4167 18.7673ZM29.9009 22.591V17.9841L32.7396 16.3472L33.9062 15.6727V20.2796L29.9009 22.591Z" fill="#00687B"/>
</g>
<defs>
<clipPath id="clip0_420_774">
<rect width="35" height="35" fill="white"/>
</clipPath>
</defs>
</svg>
