<svg width="35" height="35" viewBox="0 0 35 35" fill="none" xmlns="http://www.w3.org/2000/svg">
<g clip-path="url(#clip0_420_789)">
<path d="M1.23047 35H3.96484C4.29107 34.9996 4.60384 34.8699 4.83452 34.6392C5.0652 34.4085 5.19495 34.0958 5.19531 33.7695V31.0352C5.19495 30.7089 5.0652 30.3962 4.83452 30.1655C4.60384 29.9348 4.29107 29.805 3.96484 29.8047H1.23047C0.904239 29.805 0.591475 29.9348 0.360796 30.1655C0.130116 30.3962 0.000361874 30.7089 0 31.0352L0 33.7695C0.000361874 34.0958 0.130116 34.4085 0.360796 34.6392C0.591475 34.8699 0.904239 34.9996 1.23047 35ZM0.820312 31.0352C0.820312 30.9264 0.863525 30.8221 0.940444 30.7451C1.01736 30.6682 1.12169 30.625 1.23047 30.625H3.96484C4.07362 30.625 4.17795 30.6682 4.25487 30.7451C4.33179 30.8221 4.375 30.9264 4.375 31.0352V33.7695C4.375 33.8783 4.33179 33.9826 4.25487 34.0596C4.17795 34.1365 4.07362 34.1797 3.96484 34.1797H1.23047C1.12169 34.1797 1.01736 34.1365 0.940444 34.0596C0.863525 33.9826 0.820312 33.8783 0.820312 33.7695V31.0352Z" fill="#00687B"/>
<path d="M32.8858 5.45204L34.5029 3.83494C34.6172 3.72068 34.7078 3.58503 34.7696 3.43574C34.8315 3.28645 34.8633 3.12645 34.8633 2.96486C34.8633 2.80327 34.8315 2.64326 34.7696 2.49397C34.7078 2.34469 34.6172 2.20904 34.5029 2.09478L32.8858 0.47767C32.6543 0.248306 32.3416 0.119629 32.0157 0.119629C31.6898 0.119629 31.3771 0.248306 31.1456 0.47767L29.528 2.09478C29.2977 2.32579 29.1684 2.63867 29.1684 2.96486C29.1684 3.29105 29.2977 3.60393 29.528 3.83494L31.1454 5.45204C31.3763 5.68256 31.6893 5.81202 32.0156 5.81202C32.3419 5.81202 32.6548 5.68256 32.8858 5.45204ZM30.1082 2.67474L31.7259 1.05763C31.803 0.981221 31.9072 0.938353 32.0157 0.938353C32.1243 0.938353 32.2284 0.981221 32.3056 1.05763L33.9229 2.67474C33.9611 2.71283 33.9913 2.75806 34.0119 2.80784C34.0325 2.85762 34.0432 2.91097 34.0432 2.96486C34.0432 3.01874 34.0325 3.0721 34.0119 3.12188C33.9913 3.17166 33.9611 3.21689 33.9229 3.25498L32.3056 4.87181C32.2286 4.9487 32.1243 4.9919 32.0156 4.9919C31.9068 4.9919 31.8025 4.9487 31.7256 4.87181L30.1085 3.25388C30.0318 3.17704 29.9887 3.07293 29.9887 2.96437C29.9886 2.85581 30.0316 2.75166 30.1082 2.67474Z" fill="#00687B"/>
<path d="M32.2656 29.5312C31.7248 29.5312 31.1962 29.6916 30.7465 29.9921C30.2968 30.2925 29.9464 30.7196 29.7394 31.2192C29.5324 31.7189 29.4783 32.2687 29.5838 32.7991C29.6893 33.3295 29.9497 33.8167 30.3321 34.1991C30.7145 34.5815 31.2018 34.842 31.7322 34.9475C32.2626 35.053 32.8124 34.9988 33.312 34.7919C33.8117 34.5849 34.2387 34.2344 34.5392 33.7848C34.8396 33.3351 35 32.8064 35 32.2656C34.9992 31.5407 34.7109 30.8456 34.1982 30.333C33.6856 29.8204 32.9906 29.532 32.2656 29.5312ZM32.2656 34.1797C31.8871 34.1797 31.517 34.0674 31.2022 33.8571C30.8875 33.6468 30.6421 33.3479 30.4973 32.9981C30.3524 32.6484 30.3145 32.2635 30.3883 31.8922C30.4622 31.5209 30.6445 31.1799 30.9122 30.9122C31.1799 30.6445 31.5209 30.4622 31.8922 30.3883C32.2635 30.3145 32.6484 30.3524 32.9981 30.4973C33.3479 30.6421 33.6468 30.8875 33.8571 31.2022C34.0674 31.517 34.1797 31.8871 34.1797 32.2656C34.179 32.7731 33.9772 33.2595 33.6184 33.6184C33.2595 33.9772 32.7731 34.179 32.2656 34.1797Z" fill="#00687B"/>
<path d="M0.280561 4.72198C0.388063 4.90841 0.543003 5.06306 0.729635 5.17021C0.916268 5.27735 1.12794 5.33318 1.34314 5.33202H4.39908C4.6141 5.33206 4.82538 5.27575 5.01186 5.1687C5.19834 5.06165 5.35352 4.90761 5.46192 4.72191C5.57033 4.53622 5.62818 4.32536 5.62972 4.11034C5.63126 3.89532 5.57642 3.68366 5.47068 3.49643L3.94244 0.792958C3.83523 0.603201 3.67956 0.445321 3.49132 0.335467C3.30309 0.225612 3.08905 0.167725 2.87111 0.167725C2.65316 0.167725 2.43913 0.225612 2.25089 0.335467C2.06266 0.445321 1.90698 0.603201 1.79978 0.792958L0.271538 3.49643C0.164721 3.68333 0.109288 3.89517 0.110873 4.11042C0.112458 4.32568 0.171004 4.53668 0.280561 4.72198ZM0.985756 3.89976L2.51373 1.19464C2.54942 1.13125 2.60133 1.0785 2.66413 1.0418C2.72693 1.00509 2.79837 0.985742 2.87111 0.985742C2.94385 0.985742 3.01529 1.00509 3.07809 1.0418C3.14089 1.0785 3.1928 1.13125 3.22849 1.19464L4.75619 3.89976C4.79145 3.96216 4.80975 4.03272 4.80925 4.10439C4.80876 4.17607 4.78948 4.24637 4.75336 4.30828C4.71723 4.37019 4.66551 4.42155 4.60335 4.45724C4.54119 4.49293 4.47076 4.51171 4.39908 4.51171H1.34314C1.27144 4.51176 1.20097 4.49302 1.13877 4.45734C1.07658 4.42167 1.02482 4.37031 0.988655 4.30839C0.952496 4.24648 0.933199 4.17616 0.932691 4.10446C0.932182 4.03276 0.950479 3.96218 0.985756 3.89976Z" fill="#00687B"/>
<path d="M6.96091 19.8425C7.00683 19.8135 7.04653 19.7757 7.07771 19.7312C7.1089 19.6867 7.13094 19.6365 7.14255 19.5834C7.15417 19.5304 7.15513 19.4755 7.14538 19.4221C7.13563 19.3687 7.11536 19.3177 7.08576 19.2722C7.05616 19.2266 7.0178 19.1874 6.97292 19.1568C6.92804 19.1262 6.87754 19.1048 6.82433 19.0939C6.77112 19.083 6.71628 19.0828 6.66298 19.0932C6.60968 19.1037 6.55898 19.1246 6.51383 19.1548C4.08653 20.7323 0.14903 23.7105 1.047 25.9303C2.32833 28.7229 9.20665 27.1285 11.293 26.6601C11.7534 26.5567 12.2227 26.4301 12.6965 26.303C13.1592 26.8887 15.9879 29.6936 18.4387 32.1472C18.8476 32.5541 19.3918 32.7964 19.9678 32.8279C20.5438 32.8595 21.1112 32.6781 21.5621 32.3183C22.013 31.9585 22.3158 31.4454 22.4128 30.8768C22.5098 30.3082 22.3943 29.7238 22.0883 29.2348L21.7831 28.7481C22.0555 28.7625 22.3279 28.7194 22.5826 28.6216C22.8373 28.5239 23.0685 28.3737 23.2613 28.1807C23.9086 27.5332 23.984 26.5423 23.4527 25.6563C22.8958 24.775 22.2941 23.9229 21.65 23.1032C22.0127 22.9428 22.3785 22.7777 22.7473 22.6078C29.3221 19.5598 35.4449 15.2206 34.341 12.4794C33.262 9.8046 26.2112 10.9509 20.5024 12.7446C20.3986 12.7772 20.312 12.8498 20.2617 12.9462C20.2114 13.0427 20.2015 13.1552 20.2341 13.2589C20.2667 13.3627 20.3393 13.4493 20.4357 13.4996C20.5322 13.5499 20.6447 13.5598 20.7484 13.5272C28.3183 11.1483 33.0099 11.3709 33.5809 12.7862C34.224 14.3825 30.2277 18.2339 22.3997 21.8643C21.9748 22.0615 21.5524 22.2517 21.1326 22.4347C20.9237 22.1689 20.7326 21.9294 20.5759 21.7347C20.9785 21.5748 21.3205 21.2923 21.5537 20.9272C21.7868 20.5622 21.8992 20.1331 21.875 19.7006C21.7514 17.5 21.0689 14.0637 18.1336 12.9448C19.3862 12.3944 20.3794 11.3838 20.9079 10.1218C21.0903 10.1122 21.2644 10.042 21.4025 9.92232C21.5405 9.80259 21.6347 9.64019 21.6699 9.46089L21.8263 8.65562C21.8627 8.46578 21.8308 8.2692 21.7364 8.10057C21.6419 7.93193 21.4909 7.80206 21.3101 7.73386C21.2447 6.6546 20.852 5.62088 20.1844 4.77038C19.5167 3.91988 18.6058 3.29296 17.573 2.97311C16.5401 2.65327 15.4343 2.65568 14.4029 2.98003C13.3715 3.30437 12.4633 3.93526 11.7994 4.78866C11.385 4.78615 10.9827 4.92834 10.6619 5.19071C10.3411 5.45308 10.122 5.81918 10.0423 6.22585L9.83364 7.30073C9.75929 7.68545 9.81416 8.08395 9.98971 8.43426C10.1653 8.78457 10.4517 9.06705 10.8043 9.23776C10.9858 10.0512 11.3561 10.8106 11.8853 11.4545C12.4146 12.0983 13.088 12.6085 13.851 12.9439C12.6867 13.3529 11.6319 14.0238 10.768 14.905C9.63747 16.1241 8.73866 17.539 8.11563 19.0804C7.92739 19.5291 7.91269 20.0318 8.0744 20.4908C8.23611 20.9497 8.56268 21.3322 8.99063 21.5638C9.40541 21.7802 9.8846 21.8387 10.3393 21.7286C10.794 21.6185 11.1933 21.3471 11.4631 20.965C11.5433 20.8501 11.6253 20.7278 11.7091 20.598C11.6933 21.6628 11.705 22.7486 11.7215 23.5943C11.7376 24.2862 11.9121 24.9652 12.2314 25.5792C11.8519 25.679 11.4754 25.7744 11.1054 25.8617C5.30415 27.231 2.25696 26.7298 1.80989 25.623C1.33465 24.454 3.35727 22.185 6.96091 19.8425ZM21.1761 31.5642C20.8894 31.85 20.5013 32.0107 20.0965 32.0111C19.6917 32.0115 19.3032 31.8516 19.0159 31.5664C16.0781 28.6362 14.1797 26.7173 13.5685 26.0607C15.0566 25.6333 16.5957 25.1212 18.1385 24.5404C18.1682 24.7108 18.2334 24.873 18.3299 25.0165C19.055 26.0763 20.7545 28.5941 21.3924 29.6707C21.5773 29.9637 21.6567 30.3112 21.6173 30.6555C21.578 30.9998 21.4223 31.3204 21.1761 31.5642ZM20.8726 23.4415C21.5427 24.2872 22.1684 25.1671 22.7473 26.0777C22.9986 26.4971 23.1315 27.1479 22.6786 27.6005C22.5657 27.7121 22.4305 27.7988 22.2818 27.8548C22.1332 27.9107 21.9744 27.9348 21.8158 27.9253C21.6573 27.9158 21.5025 27.8731 21.3616 27.7998C21.2206 27.7266 21.0967 27.6244 20.9978 27.5001L19.0094 24.5576C18.9756 24.5102 18.9533 24.4555 18.9442 24.398C18.9351 24.3404 18.9395 24.2816 18.9569 24.226C19.6038 23.976 20.224 23.7201 20.8726 23.4415ZM19.4781 23.1355L19.9134 22.2263C20.0383 22.3816 20.1868 22.5667 20.349 22.7732C20.0564 22.8975 19.7663 23.0183 19.4789 23.1355H19.4781ZM20.8638 9.30421L18.1798 8.78249L18.3362 7.97749L21.0202 8.49921L20.8638 9.30421ZM15.9961 3.55464C17.1037 3.55661 18.172 3.96544 18.9979 4.70341C19.8239 5.44139 20.3499 6.45709 20.4761 7.55749L18.3602 7.14734C18.2886 6.80388 18.1174 6.48916 17.8679 6.24249C17.6184 5.99583 17.3017 5.82816 16.9575 5.76046L12.7518 4.94288C13.1717 4.50557 13.6753 4.15728 14.2327 3.91878C14.7901 3.68027 15.3898 3.55643 15.9961 3.55464ZM10.6389 7.45605L10.8475 6.38226C10.8966 6.13365 11.0421 5.91455 11.2521 5.77275C11.4621 5.63096 11.7197 5.57798 11.9686 5.62538L16.8 6.56464C17.0484 6.61407 17.2673 6.75957 17.409 6.9695C17.5508 7.17944 17.6039 7.43684 17.5569 7.68573L17.3482 8.75952C17.2998 9.00848 17.1545 9.22804 16.9443 9.36996C16.7341 9.51187 16.4762 9.56454 16.2272 9.5164L11.3955 8.57714C11.1466 8.52864 10.9271 8.38334 10.7853 8.17314C10.6434 7.96294 10.5908 7.70502 10.6389 7.45605ZM11.7187 9.47675L16.0705 10.3225C16.4142 10.3879 16.7697 10.3506 17.0923 10.2151C17.415 10.0796 17.6905 9.85196 17.8845 9.56069L20.0703 9.98562C19.6878 10.8024 19.0686 11.4854 18.2932 11.946C17.5177 12.4066 16.6218 12.6235 15.7215 12.5686C14.8212 12.5138 13.9582 12.1897 13.2444 11.6384C12.5306 11.087 11.9993 10.3339 11.7187 9.47675ZM12.168 17.5C12.0592 17.5 11.9549 17.5432 11.878 17.6201C11.801 17.697 11.7578 17.8013 11.7578 17.9101V18.8972C11.4622 19.4464 11.1386 19.98 10.7882 20.496C10.6324 20.715 10.4025 20.8702 10.141 20.9327C9.87959 20.9952 9.60436 20.9608 9.36633 20.8359C9.12139 20.695 8.93641 20.4694 8.84625 20.2017C8.7561 19.9339 8.76699 19.6423 8.87688 19.382C9.46506 17.9332 10.3115 16.6033 11.375 15.4571C11.4513 15.3732 13.2839 13.3967 15.9961 13.3973C19.8847 13.3984 20.8606 16.8522 21.0547 19.7465C21.0636 19.9141 21.0385 20.0818 20.9808 20.2394C20.9231 20.397 20.8341 20.5413 20.7191 20.6636C20.6041 20.7858 20.4655 20.8835 20.3117 20.9507C20.1579 21.0179 19.9921 21.0533 19.8242 21.0546C19.0843 21.0727 18.7595 20.3825 18.8426 19.6432C18.901 19.0254 18.8615 18.4023 18.7253 17.7969C18.6927 17.6954 18.6219 17.6106 18.5279 17.5604C18.4338 17.5102 18.3239 17.4986 18.2215 17.528C18.119 17.5574 18.0321 17.6256 17.979 17.7181C17.9259 17.8105 17.911 17.92 17.9372 18.0233C18.0447 18.5262 18.075 19.0425 18.0272 19.5546C17.9227 20.5619 18.3225 21.4574 19.2177 21.782L18.3561 23.5812C16.5602 24.2746 14.7613 24.8765 13.04 25.3599C12.725 24.8179 12.5528 24.2049 12.5393 23.5782C12.4778 21.9417 12.5702 19.6891 12.5781 17.9101C12.5781 17.8013 12.5349 17.697 12.458 17.6201C12.3811 17.5432 12.2768 17.5 12.168 17.5Z" fill="#00687B"/>
</g>
<defs>
<clipPath id="clip0_420_789">
<rect width="35" height="35" fill="white"/>
</clipPath>
</defs>
</svg>
