<svg width="35" height="35" viewBox="0 0 35 35" fill="none" xmlns="http://www.w3.org/2000/svg">
<g clip-path="url(#clip0_420_801)">
<path d="M34.4711 18.6859L31.4167 13.3956C31.3545 13.2878 31.2574 13.2044 31.1414 13.1593L23.6615 10.251C23.7597 10.0085 23.8433 9.76035 23.912 9.5079H24.6816C24.8266 9.5079 24.9657 9.45028 25.0683 9.34772C25.1708 9.24516 25.2284 9.10607 25.2284 8.96103V6.56414C25.2284 6.4191 25.1708 6.28 25.0683 6.17744C24.9657 6.07488 24.8266 6.01727 24.6816 6.01727H23.9121C23.7649 5.47372 23.5484 4.95138 23.2679 4.46312L23.8124 3.91863C23.915 3.81608 23.9726 3.67699 23.9726 3.53196C23.9726 3.38693 23.915 3.24784 23.8124 3.14528L22.1175 1.45045C22.0667 1.39965 22.0064 1.35936 21.94 1.33187C21.8737 1.30438 21.8026 1.29023 21.7307 1.29023C21.6589 1.29023 21.5878 1.30438 21.5214 1.33187C21.4551 1.35936 21.3948 1.39965 21.344 1.45045L20.7995 1.99507C20.3112 1.71449 19.7889 1.49794 19.2453 1.35078V0.581055C19.2453 0.436014 19.1877 0.296915 19.0851 0.194356C18.9825 0.0917967 18.8435 0.0341797 18.6984 0.0341797H16.3016C16.1566 0.0341797 16.0175 0.0917967 15.9149 0.194356C15.8123 0.296915 15.7547 0.436014 15.7547 0.581055V1.35071C15.2111 1.49784 14.6887 1.71436 14.2004 1.99493L13.656 1.45038C13.6052 1.3996 13.5449 1.35931 13.4786 1.33183C13.4122 1.30434 13.3411 1.29019 13.2693 1.29019C13.1975 1.29019 13.1264 1.30434 13.06 1.33183C12.9937 1.35931 12.9334 1.3996 12.8826 1.45038L11.1877 3.14515C11.0852 3.2477 11.0275 3.38679 11.0275 3.53182C11.0275 3.67685 11.0852 3.81594 11.1877 3.9185L11.7322 4.46312C11.4517 4.95137 11.2351 5.47371 11.0879 6.01727H10.3184C10.1734 6.01727 10.0343 6.07488 9.93174 6.17744C9.82918 6.28 9.77156 6.4191 9.77156 6.56414V8.96103C9.77156 9.10607 9.82918 9.24516 9.93174 9.34772C10.0343 9.45028 10.1734 9.5079 10.3184 9.5079H11.0879C11.1565 9.76037 11.2401 10.0085 11.3383 10.251L3.85861 13.1592C3.74262 13.2043 3.64549 13.2876 3.58326 13.3954L0.528898 18.6859C0.489522 18.7542 0.465371 18.8302 0.458098 18.9086C0.450825 18.9871 0.460602 19.0662 0.48676 19.1406C0.512918 19.2149 0.554838 19.2828 0.609648 19.3394C0.664459 19.396 0.730865 19.4402 0.804317 19.4688L3.50998 20.5207V29.1918C3.50998 29.302 3.54326 29.4097 3.60548 29.5006C3.66769 29.5916 3.75592 29.6616 3.85861 29.7015L17.3018 34.9286C17.4293 34.9782 17.5707 34.9782 17.6982 34.9286L31.1415 29.7015C31.2442 29.6616 31.3324 29.5916 31.3946 29.5006C31.4568 29.4097 31.4901 29.302 31.4901 29.1918V20.521L34.1958 19.469C34.2692 19.4404 34.3357 19.3963 34.3905 19.3397C34.4454 19.283 34.4873 19.2151 34.5135 19.1408C34.5396 19.0664 34.5494 18.9872 34.5421 18.9087C34.5348 18.8302 34.5106 18.7542 34.4712 18.6859H34.4711ZM17.5 18.3094L5.56589 13.669L11.3901 11.4045L11.188 11.6066C11.1372 11.6574 11.0969 11.7177 11.0694 11.784C11.0419 11.8504 11.0278 11.9215 11.0278 11.9933C11.0278 12.0651 11.0419 12.1362 11.0694 12.2026C11.0969 12.2689 11.1372 12.3292 11.188 12.38L12.8825 14.0752C12.9333 14.126 12.9936 14.1663 13.06 14.1938C13.1263 14.2213 13.1974 14.2354 13.2693 14.2354C13.3411 14.2354 13.4122 14.2213 13.4786 14.1938C13.5449 14.1663 13.6052 14.126 13.656 14.0752L14.2004 13.5306C14.6887 13.8112 15.2111 14.0277 15.7547 14.1749V14.9444C15.7547 15.0894 15.8123 15.2285 15.9149 15.3311C16.0175 15.4336 16.1566 15.4913 16.3016 15.4913H18.6984C18.8435 15.4913 18.9825 15.4336 19.0851 15.3311C19.1877 15.2285 19.2453 15.0894 19.2453 14.9444V14.1746C19.7888 14.0274 20.3112 13.8109 20.7995 13.5304L21.3439 14.0749C21.3947 14.1256 21.455 14.1659 21.5214 14.1934C21.5877 14.2209 21.6588 14.2351 21.7307 14.2351C21.8025 14.2351 21.8736 14.2209 21.94 14.1934C22.0063 14.1659 22.0666 14.1256 22.1174 14.0749L23.8122 12.3799C23.863 12.3291 23.9033 12.2688 23.9308 12.2024C23.9583 12.1361 23.9725 12.065 23.9725 11.9931C23.9725 11.9213 23.9583 11.8502 23.9308 11.7838C23.9033 11.7175 23.863 11.6572 23.8122 11.6064L23.6101 11.4043L29.4343 13.6688L17.5 18.3094ZM10.8653 8.41415V7.11102H11.521C11.6475 7.11102 11.7701 7.06719 11.8679 6.98699C11.9657 6.90678 12.0326 6.79516 12.0574 6.67112C12.1983 5.9618 12.4779 5.28728 12.8801 4.68624C12.9503 4.58101 12.9819 4.45469 12.9694 4.3288C12.9569 4.2029 12.9012 4.08523 12.8117 3.99581L12.3476 3.53165L13.2692 2.61051L13.7333 3.0746C13.8227 3.16409 13.9404 3.21982 14.0662 3.23228C14.1921 3.24475 14.3185 3.21318 14.4237 3.14296C15.0247 2.74072 15.6992 2.46111 16.4086 2.32019C16.5326 2.29546 16.6442 2.22851 16.7245 2.13073C16.8047 2.03294 16.8485 1.91038 16.8485 1.78391V1.12793H18.1516V1.7837C18.1516 1.91018 18.1955 2.03274 18.2757 2.13052C18.3559 2.2283 18.4675 2.29525 18.5916 2.31998C19.3008 2.46098 19.9752 2.74061 20.5762 3.14282C20.6814 3.21304 20.8077 3.24461 20.9336 3.23215C21.0595 3.21968 21.1772 3.16396 21.2666 3.07446L21.7307 2.6103L22.652 3.53172L22.188 3.99574C22.0985 4.08516 22.0427 4.20284 22.0303 4.32873C22.0178 4.45462 22.0494 4.58094 22.1196 4.68617C22.5218 5.28717 22.8014 5.96168 22.9423 6.67099C22.967 6.79502 23.034 6.90664 23.1318 6.98685C23.2296 7.06706 23.3522 7.11089 23.4786 7.11088H24.1344V8.41401H23.4786C23.3522 8.414 23.2296 8.45784 23.1318 8.53804C23.034 8.61825 22.967 8.72987 22.9423 8.85391C22.8014 9.56327 22.5218 10.2378 22.1196 10.8389C22.0494 10.9442 22.0178 11.0705 22.0303 11.1964C22.0427 11.3223 22.0985 11.4399 22.188 11.5294L22.652 11.9934L21.7306 12.9149L21.2667 12.4508C21.1773 12.3613 21.0596 12.3056 20.9337 12.2932C20.8078 12.2807 20.6815 12.3123 20.5762 12.3825C19.9752 12.7847 19.3007 13.0643 18.5914 13.2052C18.4673 13.2299 18.3557 13.2969 18.2755 13.3947C18.1952 13.4925 18.1514 13.615 18.1514 13.7415V14.3972H16.8485V13.7416C16.8485 13.6151 16.8046 13.4925 16.7244 13.3947C16.6442 13.2969 16.5325 13.23 16.4084 13.2053C15.6992 13.0643 15.0248 12.7848 14.4238 12.3825C14.3186 12.3123 14.1923 12.2808 14.0664 12.2932C13.9405 12.3057 13.8228 12.3614 13.7334 12.4509L13.2694 12.915L12.348 11.9935L12.8121 11.5296C12.9015 11.4401 12.9573 11.3225 12.9697 11.1966C12.9822 11.0707 12.9506 10.9444 12.8804 10.8391C12.4782 10.238 12.1986 9.56343 12.0577 8.85404C12.033 8.73001 11.966 8.61839 11.8682 8.53818C11.7704 8.45797 11.6478 8.41414 11.5214 8.41415H10.8653ZM1.79484 18.6806L4.29591 14.3486L16.7076 19.1748L14.2066 23.5067L1.79484 18.6806ZM4.60373 20.9463L14.2475 24.6961C14.3692 24.7434 14.5039 24.7456 14.6271 24.7023C14.7503 24.6589 14.8539 24.5729 14.9192 24.4598L16.9531 20.937V33.6196L4.60373 28.8177V20.9463ZM30.3963 28.8177L18.0469 33.6196V20.937L20.0808 24.4598C20.1461 24.5729 20.2497 24.6589 20.3729 24.7023C20.4961 24.7456 20.6308 24.7434 20.7525 24.6961L30.3963 20.9463V28.8177ZM20.7934 23.5067L18.2924 19.1748L30.7041 14.3486L33.2052 18.6806L20.7934 23.5067ZM17.5 12.044C18.3468 12.044 19.1745 11.7929 19.8786 11.3224C20.5826 10.852 21.1313 10.1834 21.4554 9.40106C21.7794 8.61876 21.8642 7.75794 21.699 6.92745C21.5338 6.09696 21.1261 5.33411 20.5273 4.73536C19.9286 4.13662 19.1657 3.72886 18.3352 3.56367C17.5048 3.39848 16.6439 3.48326 15.8616 3.8073C15.0793 4.13134 14.4107 4.68008 13.9402 5.38413C13.4698 6.08819 13.2187 6.91593 13.2187 7.76269C13.22 8.89776 13.6715 9.98597 14.4741 10.7886C15.2767 11.5912 16.3649 12.0427 17.5 12.044ZM17.5 4.57516C18.1304 4.57516 18.7467 4.7621 19.2709 5.11235C19.7951 5.4626 20.2036 5.96043 20.4449 6.54287C20.6862 7.12532 20.7493 7.76622 20.6263 8.38454C20.5033 9.00286 20.1997 9.57083 19.7539 10.0166C19.3081 10.4624 18.7402 10.766 18.1219 10.889C17.5035 11.012 16.8626 10.9488 16.2802 10.7076C15.6977 10.4663 15.1999 10.0578 14.8497 9.53358C14.4994 9.00939 14.3125 8.39312 14.3125 7.76269C14.3134 6.91759 14.6496 6.10739 15.2471 5.50982C15.8447 4.91225 16.6549 4.57612 17.5 4.57516ZM4.84422 7.76269C4.84422 7.61765 4.90184 7.47855 5.0044 7.37599C5.10695 7.27343 5.24605 7.21581 5.39109 7.21581H7.73145C7.87649 7.21581 8.01559 7.27343 8.11814 7.37599C8.2207 7.47855 8.27832 7.61765 8.27832 7.76269C8.27832 7.90773 8.2207 8.04683 8.11814 8.14938C8.01559 8.25194 7.87649 8.30956 7.73145 8.30956H5.39109C5.24605 8.30956 5.10695 8.25194 5.0044 8.14938C4.90184 8.04683 4.84422 7.90773 4.84422 7.76269ZM8.59236 10.1495C8.61097 10.2189 8.61573 10.2913 8.60637 10.3625C8.597 10.4337 8.5737 10.5024 8.53779 10.5646C8.50188 10.6268 8.45406 10.6813 8.39707 10.7251C8.34009 10.7688 8.27504 10.8009 8.20566 10.8194L5.94528 11.4251C5.87591 11.4437 5.80356 11.4484 5.73236 11.4391C5.66116 11.4297 5.5925 11.4064 5.5303 11.3705C5.46811 11.3346 5.41359 11.2868 5.36987 11.2298C5.32615 11.1728 5.29409 11.1078 5.2755 11.0384C5.25691 10.969 5.25217 10.8967 5.26154 10.8255C5.27092 10.7543 5.29423 10.6856 5.33014 10.6234C5.36605 10.5612 5.41385 10.5067 5.47083 10.463C5.52781 10.4193 5.59284 10.3872 5.66221 10.3686L7.92258 9.76288C8.06267 9.72534 8.21194 9.74498 8.33754 9.81749C8.46315 9.89 8.55481 10.0094 8.59236 10.1495ZM25.4864 3.15137C25.4138 3.02576 25.3942 2.87649 25.4317 2.7364C25.4693 2.5963 25.5609 2.47686 25.6865 2.40434L27.7129 1.23443C27.7751 1.19747 27.8441 1.17322 27.9158 1.16311C27.9874 1.15299 28.0604 1.15721 28.1304 1.17551C28.2005 1.19381 28.2662 1.22583 28.3237 1.26971C28.3813 1.3136 28.4296 1.36848 28.4658 1.43116C28.502 1.49385 28.5254 1.56309 28.5346 1.63489C28.5438 1.70668 28.5387 1.77959 28.5195 1.84939C28.5004 1.9192 28.4675 1.9845 28.423 2.04152C28.3784 2.09854 28.3229 2.14613 28.2598 2.18155L26.2334 3.35166C26.1712 3.38761 26.1025 3.41094 26.0313 3.42033C25.9601 3.42972 25.8877 3.42497 25.8184 3.40637C25.749 3.38777 25.6839 3.35567 25.627 3.31192C25.57 3.26816 25.5222 3.2136 25.4864 3.15137ZM5.27543 4.48718C5.29401 4.41779 5.32608 4.35273 5.3698 4.29574C5.41353 4.23874 5.46805 4.19092 5.53026 4.155C5.59248 4.11909 5.66115 4.09578 5.73238 4.08641C5.8036 4.07704 5.87597 4.08179 5.94535 4.1004L8.20572 4.70606C8.34584 4.74358 8.46532 4.83521 8.53787 4.96081C8.61043 5.08642 8.63011 5.2357 8.5926 5.37582C8.55509 5.51593 8.46346 5.63541 8.33785 5.70797C8.21225 5.78052 8.06297 5.80021 7.92285 5.7627L5.66241 5.15703C5.59301 5.13847 5.52794 5.10642 5.47093 5.06271C5.41392 5.019 5.36608 4.96449 5.33014 4.90228C5.2942 4.84008 5.27087 4.7714 5.26149 4.70017C5.2521 4.62895 5.25684 4.55657 5.27543 4.48718ZM26.7943 4.70593L29.0548 4.1002C29.1949 4.06266 29.3442 4.08231 29.4698 4.15484C29.5954 4.22737 29.6871 4.34683 29.7246 4.48694C29.7621 4.62705 29.7425 4.77633 29.67 4.90195C29.5974 5.02756 29.478 5.11922 29.3379 5.15676L27.0772 5.7627C27.0078 5.78128 26.9354 5.78602 26.8642 5.77665C26.793 5.76727 26.7244 5.74397 26.6622 5.70806C26.6 5.67215 26.5455 5.62434 26.5017 5.56736C26.458 5.51039 26.426 5.44536 26.4074 5.37599C26.3888 5.30662 26.384 5.23426 26.3934 5.16306C26.4028 5.09186 26.4261 5.0232 26.462 4.961C26.4979 4.89881 26.5457 4.8443 26.6027 4.80058C26.6597 4.75686 26.7247 4.72479 26.7941 4.7062L26.7943 4.70593ZM6.53974 1.43473C6.57565 1.3725 6.62348 1.31795 6.68048 1.27421C6.73749 1.23047 6.80255 1.19839 6.87196 1.17981C6.94137 1.16123 7.01376 1.15651 7.08499 1.16592C7.15622 1.17532 7.22491 1.19868 7.28711 1.23464L9.31376 2.40475C9.37689 2.44017 9.43235 2.48776 9.47695 2.54478C9.52154 2.6018 9.55437 2.6671 9.57353 2.73691C9.59269 2.80671 9.59781 2.87962 9.58858 2.95141C9.57935 3.02321 9.55596 3.09245 9.51976 3.15514C9.48357 3.21782 9.43529 3.2727 9.37772 3.31658C9.32016 3.36047 9.25446 3.39249 9.18442 3.41079C9.11439 3.42909 9.04142 3.4333 8.96975 3.42319C8.89807 3.41307 8.82912 3.38883 8.76688 3.35187L6.74024 2.18176C6.67801 2.14588 6.62347 2.09809 6.57972 2.04113C6.53597 1.98417 6.50387 1.91914 6.48525 1.84977C6.46663 1.7804 6.46186 1.70804 6.47121 1.63683C6.48056 1.56562 6.50384 1.49694 6.53974 1.43473ZM29.609 7.21561C29.754 7.21561 29.8931 7.27322 29.9957 7.37578C30.0982 7.47834 30.1558 7.61744 30.1558 7.76248C30.1558 7.90752 30.0982 8.04662 29.9957 8.14918C29.8931 8.25174 29.754 8.30936 29.609 8.30936H27.2686C27.1235 8.30936 26.9844 8.25174 26.8819 8.14918C26.7793 8.04662 26.7217 7.90752 26.7217 7.76248C26.7217 7.61744 26.7793 7.47834 26.8819 7.37578C26.9844 7.27322 27.1235 7.21561 27.2686 7.21561H29.609ZM29.7246 11.0381C29.7061 11.1075 29.6741 11.1725 29.6303 11.2296C29.5866 11.2866 29.5321 11.3344 29.4699 11.3703C29.4076 11.4063 29.339 11.4295 29.2677 11.4389C29.1965 11.4482 29.1241 11.4434 29.0547 11.4248L26.7943 10.8191C26.7249 10.8005 26.6599 10.7685 26.6029 10.7247C26.5459 10.681 26.4981 10.6265 26.4622 10.5643C26.4263 10.5021 26.4029 10.4335 26.3936 10.3623C26.3842 10.291 26.3889 10.2187 26.4075 10.1493C26.4261 10.0799 26.4581 10.0149 26.5019 9.95792C26.5456 9.90094 26.6001 9.85313 26.6623 9.81721C26.7245 9.78129 26.7931 9.75798 26.8644 9.7486C26.9356 9.73922 27.0079 9.74396 27.0773 9.76254L29.3378 10.3683C29.4072 10.3868 29.4722 10.4189 29.5292 10.4626C29.5862 10.5063 29.634 10.5608 29.67 10.623C29.7059 10.6852 29.7292 10.7539 29.7386 10.8251C29.748 10.8963 29.7432 10.9687 29.7246 11.0381Z" fill="#00687B"/>
</g>
<defs>
<clipPath id="clip0_420_801">
<rect width="35" height="35" fill="white"/>
</clipPath>
</defs>
</svg>
