<svg width="35" height="35" viewBox="0 0 35 35" fill="none" xmlns="http://www.w3.org/2000/svg">
<g clip-path="url(#clip0_420_811)">
<path d="M17.5 14.5834C18.5384 14.5834 19.5534 14.2755 20.4167 13.6986C21.2801 13.1217 21.953 12.3018 22.3504 11.3425C22.7477 10.3832 22.8517 9.32755 22.6491 8.30915C22.4466 7.29075 21.9465 6.35529 21.2123 5.62107C20.4781 4.88684 19.5426 4.38683 18.5242 4.18425C17.5058 3.98168 16.4502 4.08565 15.4909 4.48301C14.5316 4.88037 13.7117 5.55327 13.1348 6.41663C12.5579 7.27999 12.25 8.29502 12.25 9.33338C12.2515 10.7253 12.8052 12.0598 13.7894 13.044C14.7736 14.0282 16.1081 14.5818 17.5 14.5834ZM17.5 5.25004C18.3076 5.25004 19.0971 5.48953 19.7686 5.93821C20.4401 6.38689 20.9635 7.02462 21.2725 7.77075C21.5816 8.51688 21.6624 9.33791 21.5049 10.13C21.3473 10.9221 20.9584 11.6497 20.3874 12.2207C19.8163 12.7918 19.0887 13.1807 18.2966 13.3383C17.5045 13.4958 16.6835 13.4149 15.9374 13.1059C15.1912 12.7968 14.5535 12.2735 14.1048 11.602C13.6561 10.9305 13.4167 10.141 13.4167 9.33338C13.4179 8.25079 13.8485 7.21289 14.614 6.44739C15.3795 5.68188 16.4174 5.25128 17.5 5.25004Z" fill="#00687B"/>
<path d="M17.5 12.25C18.0769 12.25 18.6408 12.0789 19.1204 11.7584C19.6001 11.4379 19.9739 10.9824 20.1947 10.4495C20.4154 9.9165 20.4732 9.33006 20.3606 8.76428C20.2481 8.1985 19.9703 7.6788 19.5624 7.2709C19.1545 6.863 18.6348 6.58521 18.069 6.47267C17.5032 6.36013 16.9168 6.41789 16.3838 6.63865C15.8509 6.8594 15.3954 7.23324 15.0749 7.71288C14.7544 8.19252 14.5833 8.75643 14.5833 9.33329C14.5843 10.1066 14.8919 10.8479 15.4386 11.3947C15.9854 11.9414 16.7267 12.249 17.5 12.25ZM17.5 7.58329C17.8461 7.58329 18.1845 7.68593 18.4723 7.87822C18.76 8.07051 18.9843 8.34383 19.1168 8.6636C19.2493 8.98337 19.2839 9.33524 19.2164 9.6747C19.1489 10.0142 18.9822 10.326 18.7374 10.5707C18.4927 10.8155 18.1809 10.9821 17.8414 11.0497C17.502 11.1172 17.1501 11.0825 16.8303 10.9501C16.5105 10.8176 16.2372 10.5933 16.0449 10.3055C15.8526 10.0178 15.75 9.67941 15.75 9.33329C15.75 8.86917 15.9344 8.42405 16.2626 8.09586C16.5908 7.76767 17.0359 7.58329 17.5 7.58329Z" fill="#00687B"/>
<path d="M35 22.1666C34.9993 21.9241 34.9228 21.6879 34.7811 21.4911C34.6395 21.2942 34.4399 21.1466 34.2102 21.0688L28.3086 18.9583L34.2107 16.8472C34.4407 16.7701 34.6406 16.6227 34.7822 16.4258C34.9238 16.2289 35 15.9925 35 15.75C35 15.5074 34.9238 15.271 34.7822 15.0742C34.6406 14.8773 34.4407 14.7299 34.2107 14.6527L25.0524 11.3744C25.0682 11.3161 25.088 11.2577 25.102 11.1994L26.1794 10.8698C26.3476 10.8194 26.4969 10.7198 26.6079 10.5838C26.719 10.4478 26.7867 10.2817 26.8024 10.1068C26.8257 9.85189 26.8368 9.59347 26.8368 9.33331C26.8368 9.07314 26.8257 8.81472 26.8024 8.55981C26.7866 8.38481 26.7188 8.21854 26.6076 8.08245C26.4965 7.94636 26.3471 7.84666 26.1788 7.79622L25.0985 7.46664C24.9104 6.69573 24.6044 5.95846 24.1914 5.28089L24.7205 4.28922C24.8044 4.13449 24.8399 3.95814 24.8224 3.783C24.8049 3.60786 24.7353 3.442 24.6225 3.30689C24.4584 3.1105 24.2834 2.92033 24.0975 2.73639C23.9116 2.55244 23.7213 2.37744 23.5264 2.21139C23.3914 2.0991 23.2259 2.02977 23.0511 2.01231C22.8764 1.99484 22.7004 2.03005 22.5458 2.11339L21.5495 2.64306C20.8728 2.23001 20.1366 1.92348 19.3667 1.73422L19.0377 0.656805C18.9866 0.488791 18.8866 0.339798 18.7505 0.228837C18.6144 0.117876 18.4484 0.049978 18.2735 0.0338053C17.7589 -0.0125705 17.2411 -0.0125705 16.7265 0.0338053C16.5516 0.0498271 16.3854 0.11775 16.2494 0.228858C16.1133 0.339967 16.0136 0.489192 15.9629 0.657389L15.6333 1.73422C14.8627 1.92289 14.1257 2.22903 13.4482 2.64189L12.453 2.11281C12.298 2.02927 12.1216 1.99401 11.9464 2.01158C11.7713 2.02915 11.6054 2.09874 11.4701 2.21139C11.2741 2.37472 11.0839 2.54972 10.9002 2.73639C10.7164 2.92306 10.5408 3.11031 10.3752 3.30631C10.2623 3.44124 10.1925 3.60693 10.1748 3.78195C10.1572 3.95698 10.1924 4.13328 10.276 4.28806L10.8057 5.28381C10.3943 5.96086 10.0894 6.69704 9.9015 7.46664L8.82408 7.79622C8.65588 7.84658 8.50663 7.94619 8.39558 8.08219C8.28454 8.21819 8.21679 8.38435 8.20108 8.55922C8.17775 8.81414 8.16667 9.07256 8.16667 9.33272C8.16667 9.59289 8.17775 9.85131 8.20108 10.1051C8.21673 10.2802 8.28449 10.4467 8.39564 10.583C8.50679 10.7193 8.65622 10.8192 8.82467 10.8698L9.9015 11.1988C9.9155 11.2571 9.93533 11.3155 9.95108 11.3738L0.78925 14.6527C0.55931 14.7299 0.359411 14.8773 0.217787 15.0742C0.0761622 15.271 -3.06803e-05 15.5074 -3.06803e-05 15.75C-3.06803e-05 15.9925 0.0761622 16.2289 0.217787 16.4258C0.359411 16.6227 0.55931 16.7701 0.78925 16.8472L6.69142 18.9583L0.78925 21.0688C0.559172 21.146 0.35915 21.2935 0.217436 21.4904C0.0757227 21.6874 -0.000518799 21.924 -0.000518799 22.1666C-0.000518799 22.4093 0.0757227 22.6458 0.217436 22.8428C0.35915 23.0398 0.559172 23.1873 0.78925 23.2645L5.87533 25.0833L0.78925 26.9027C0.559172 26.9799 0.35915 27.1274 0.217436 27.3244C0.0757227 27.5214 -0.000518799 27.7579 -0.000518799 28.0006C-0.000518799 28.2432 0.0757227 28.4798 0.217436 28.6768C0.35915 28.8737 0.559172 29.0212 0.78925 29.0984L17.0806 34.9265C17.351 35.0245 17.6472 35.0245 17.9177 34.9265L34.2102 29.0984C34.4402 29.0212 34.6403 28.8737 34.782 28.6768C34.9237 28.4798 34.9999 28.2432 34.9999 28.0006C34.9999 27.7579 34.9237 27.5214 34.782 27.3244C34.6403 27.1274 34.4402 26.9799 34.2102 26.9027L29.1252 25.0833L34.2107 23.2645C34.4403 23.1866 34.6399 23.0389 34.7814 22.8421C34.9229 22.6452 34.9993 22.4091 35 22.1666ZM9.34792 9.80989C9.338 9.65239 9.33333 9.49314 9.33333 9.33331C9.33333 9.17347 9.338 9.01481 9.34792 8.85672L10.5671 8.48397C10.6681 8.45326 10.7589 8.39569 10.8298 8.3174C10.9007 8.23912 10.949 8.14306 10.9696 8.03947C11.1391 7.17894 11.4786 6.36088 11.9682 5.63322C12.0271 5.54547 12.061 5.44339 12.0663 5.33788C12.0717 5.23237 12.0483 5.12738 11.9986 5.03414L11.3983 3.90831C11.5033 3.79164 11.6118 3.67497 11.7256 3.56122C11.8393 3.44747 11.9542 3.33839 12.0756 3.23397L13.2043 3.83422C13.2976 3.88381 13.4026 3.90712 13.5082 3.90167C13.6137 3.89623 13.7157 3.86223 13.8034 3.80331C14.5296 3.31275 15.3462 2.97167 16.2056 2.79997C16.309 2.7795 16.405 2.73137 16.4833 2.6607C16.5615 2.59003 16.6192 2.49947 16.6501 2.39864L17.0234 1.17889C17.3408 1.15905 17.6592 1.15905 17.9766 1.17889L18.3499 2.39864C18.3808 2.49947 18.4385 2.59003 18.5167 2.6607C18.595 2.73137 18.691 2.7795 18.7944 2.79997C19.6546 2.96947 20.4723 3.309 21.1995 3.79864C21.2872 3.85756 21.3892 3.89156 21.4948 3.89701C21.6003 3.90245 21.7053 3.87914 21.7986 3.82956L22.925 3.23164C23.0417 3.33606 23.1583 3.44572 23.2721 3.55889C23.3858 3.67206 23.4943 3.78756 23.5993 3.90597L23.0014 5.03414C22.9516 5.12745 22.9282 5.23255 22.9335 5.33817C22.9388 5.4438 22.9728 5.54599 23.0317 5.63381C23.5226 6.36091 23.8632 7.17884 24.0333 8.03947C24.0539 8.14306 24.1022 8.23912 24.1731 8.3174C24.244 8.39569 24.3348 8.45326 24.4358 8.48397L25.655 8.85672C25.6649 9.01422 25.6696 9.17347 25.6696 9.33331C25.6696 9.49314 25.6649 9.65181 25.655 9.80989L24.4358 10.1826C24.3348 10.2134 24.244 10.2709 24.1731 10.3492C24.1022 10.4275 24.0539 10.5236 24.0333 10.6271C23.8638 11.4877 23.5243 12.3057 23.0347 13.0334C22.9758 13.1211 22.9419 13.2232 22.9366 13.3287C22.9313 13.4342 22.9547 13.5392 23.0043 13.6325L23.6017 14.7583C23.4967 14.875 23.3882 14.9916 23.2744 15.1083C23.1607 15.225 23.0457 15.3311 22.9273 15.4356L21.7986 14.8353C21.7053 14.7857 21.6003 14.7624 21.4948 14.7679C21.3892 14.7733 21.2872 14.8073 21.1995 14.8662C20.4724 15.3565 19.6547 15.6966 18.7944 15.8666C18.691 15.8871 18.595 15.9352 18.5167 16.0059C18.4385 16.0766 18.3808 16.1671 18.3499 16.268L17.9766 17.4877C17.6592 17.5076 17.3408 17.5076 17.0234 17.4877L16.6501 16.268C16.6192 16.1671 16.5615 16.0766 16.4833 16.0059C16.405 15.9352 16.309 15.8871 16.2056 15.8666C15.3452 15.6971 14.5273 15.3573 13.7999 14.8674C13.7122 14.8086 13.6101 14.7747 13.5046 14.7693C13.3991 14.764 13.2941 14.7874 13.2008 14.8371L12.075 15.4344C11.9583 15.3306 11.8417 15.2209 11.725 15.1077C11.6083 14.9946 11.5027 14.8791 11.3977 14.7577L11.998 13.6296C12.0478 13.5362 12.0713 13.4311 12.0659 13.3255C12.0606 13.2199 12.0266 13.1177 11.9677 13.0299C11.4778 12.3026 11.1383 11.4846 10.969 10.6242C10.9484 10.5206 10.9001 10.4246 10.8292 10.3463C10.7584 10.268 10.6675 10.2104 10.5665 10.1797L9.34792 9.80989ZM10.3396 12.4746C10.4762 12.788 10.6333 13.0922 10.8097 13.3851L10.2807 14.3768C10.1968 14.5315 10.1613 14.7079 10.1788 14.883C10.1962 15.0582 10.2659 15.224 10.3787 15.3591C10.5428 15.5555 10.7178 15.7457 10.9037 15.9296C11.0896 16.1136 11.2799 16.2886 11.4747 16.4546C11.6099 16.5667 11.7754 16.6359 11.9501 16.6534C12.1248 16.6708 12.3007 16.6358 12.4553 16.5526L13.4511 16.023C14.1277 16.436 14.8637 16.7427 15.6333 16.9324L15.9623 18.0098C16.0132 18.1778 16.113 18.3268 16.2491 18.4376C16.3851 18.5485 16.5511 18.6163 16.7259 18.6322C16.9808 18.6556 17.2393 18.6666 17.4994 18.6666C17.7596 18.6666 18.018 18.6556 18.2729 18.6322C18.4479 18.6163 18.6141 18.5484 18.7501 18.4373C18.8862 18.3261 18.9859 18.1769 19.0365 18.0086L19.3655 16.9324C20.1361 16.7437 20.8732 16.4376 21.5507 16.0247L22.5458 16.5538C22.7008 16.6375 22.8772 16.6728 23.0524 16.6553C23.2276 16.6377 23.3935 16.568 23.5287 16.4552C23.7247 16.2919 23.9149 16.1169 24.0987 15.9302C24.2824 15.7436 24.458 15.5563 24.6237 15.3603C24.7365 15.2254 24.8063 15.0597 24.824 14.8847C24.8417 14.7096 24.8064 14.5333 24.7228 14.3786L24.1932 13.3828C24.3694 13.0899 24.5263 12.7857 24.6627 12.4722L33.8176 15.75L17.4749 21.5763L1.18242 15.75L10.3396 12.4746ZM33.8176 28L17.4749 33.8281L1.18242 28L7.60667 25.7016L17.0812 29.0902C17.3516 29.1882 17.6478 29.1882 17.9182 29.0902L27.3933 25.7028L33.8176 28ZM17.4749 27.993L1.18242 22.1666L8.42333 19.5778L17.0812 22.6747C17.3516 22.7727 17.6478 22.7727 17.9182 22.6747L26.5767 19.5778L33.8176 22.1666L17.4749 27.993Z" fill="#00687B"/>
<path d="M15.9542 25.1178L9.43075 22.7845C9.28652 22.7378 9.12978 22.7491 8.99373 22.8159C8.85769 22.8828 8.75302 23 8.70191 23.1428C8.6508 23.2855 8.65725 23.4425 8.71991 23.5805C8.78257 23.7186 8.8965 23.8268 9.03758 23.8823L15.561 26.2156C15.624 26.2384 15.6905 26.2501 15.7576 26.25C15.8948 26.2499 16.0276 26.2013 16.1326 26.1128C16.2376 26.0244 16.308 25.9017 16.3315 25.7665C16.355 25.6313 16.33 25.4921 16.261 25.3734C16.192 25.2548 16.0833 25.1642 15.9542 25.1178Z" fill="#00687B"/>
<path d="M15.9542 30.951L9.43075 28.6177C9.28652 28.571 9.12978 28.5823 8.99373 28.6492C8.85769 28.7161 8.75302 28.8333 8.70191 28.976C8.6508 29.1187 8.65725 29.2757 8.71991 29.4138C8.78257 29.5518 8.8965 29.6601 9.03758 29.7155L15.561 32.0489C15.624 32.0717 15.6905 32.0833 15.7576 32.0833C15.8948 32.0831 16.0276 32.0345 16.1326 31.9461C16.2376 31.8576 16.308 31.735 16.3315 31.5997C16.355 31.4645 16.33 31.3253 16.261 31.2067C16.192 31.088 16.0833 30.9975 15.9542 30.951Z" fill="#00687B"/>
</g>
<defs>
<clipPath id="clip0_420_811">
<rect width="35" height="35" fill="white"/>
</clipPath>
</defs>
</svg>
