<svg width="22" height="33" viewBox="0 0 22 33" fill="none" xmlns="http://www.w3.org/2000/svg">
<path d="M21.1527 16.8748L10.9753 22.1631C10.8173 22.2451 10.6292 22.2451 10.4711 22.1631L0.293783 16.8748C-0.342779 16.5308 0.16144 15.5831 0.798002 15.9046L10.7232 21.0617L20.6485 15.9046C20.9164 15.7646 21.2468 15.8696 21.3862 16.1376C21.5251 16.4056 21.4207 16.7359 21.1527 16.8748ZM1.56855 13.7964L1.56199 13.7921L10.2628 0.23502C10.4646 -0.0783398 10.9814 -0.0783398 11.1837 0.23502L19.8845 13.7921L19.8779 13.7964C20.0693 14.0502 19.9545 14.433 19.675 14.5735L10.9743 19.0634C10.8162 19.1443 10.6303 19.1443 10.4722 19.0634L1.77144 14.5735C1.49308 14.433 1.3766 14.0502 1.56855 13.7964ZM2.80722 13.8768L10.7232 17.9614L18.6393 13.8768L10.7232 1.54314L2.80722 13.8768ZM18.4954 21.153L11.1837 32.5444C10.9846 32.8769 10.4618 32.8742 10.2628 32.5444L2.95105 21.153C2.85863 20.9829 2.85042 20.7871 2.92425 20.6088C3.07519 20.3474 3.38472 20.2506 3.66035 20.3704L10.7232 23.9787L17.7861 20.3704C18.1164 20.22 18.5217 20.4125 18.5703 20.7806C18.59 20.9113 18.5501 21.0376 18.4954 21.153ZM16.4818 22.2653L10.9726 25.0795C10.8944 25.1195 10.8091 25.1392 10.7238 25.1392C10.6385 25.1392 10.5526 25.1189 10.475 25.0795L4.96574 22.2653L10.7238 31.2368L16.4818 22.2653Z" fill="#00687B"/>
</svg>
