<svg width="35" height="35" viewBox="0 0 35 35" fill="none" xmlns="http://www.w3.org/2000/svg">
<g clip-path="url(#clip0_420_830)">
<path d="M34.6965 25.4652L31.109 23.6714L28.8258 17.7324C28.7989 17.6622 28.7578 17.5982 28.7051 17.5446C28.6525 17.491 28.5893 17.4488 28.5195 17.4207L14.3527 11.7578C14.2537 11.7183 14.1453 11.7087 14.0408 11.7301C13.9364 11.7515 13.8404 11.8029 13.7648 11.8781L11.8754 13.7675C11.8012 13.8432 11.7506 13.9388 11.7297 14.0427C11.7089 14.1465 11.7186 14.2543 11.7578 14.3527L17.4207 28.5195C17.4488 28.5892 17.491 28.6524 17.5446 28.7051C17.5983 28.7578 17.6622 28.7989 17.7324 28.8257L23.6715 31.1089L25.4652 34.6964C25.503 34.7756 25.5592 34.8444 25.6292 34.8972C25.6991 34.9501 25.7808 34.9853 25.8672 35C25.8963 35.0027 25.9256 35.0027 25.9547 35C26.0995 34.9994 26.2382 34.9413 26.3402 34.8386L34.8387 26.3402C34.9012 26.2798 34.9485 26.2055 34.9765 26.1232C35.0046 26.0409 35.0126 25.9531 35 25.8672C34.9853 25.7807 34.9501 25.6991 34.8973 25.6292C34.8445 25.5592 34.7756 25.503 34.6965 25.4652ZM12.9035 14.2816L13.207 13.9808L20.259 21.0328C19.7942 21.6913 19.5935 22.5003 19.6965 23.2997C19.7995 24.0991 20.1987 24.8308 20.8152 25.35C21.4317 25.8693 22.2206 26.1383 23.0259 26.1039C23.8312 26.0695 24.5943 25.7341 25.1642 25.1642C25.7342 24.5942 26.0695 23.8312 26.1039 23.0259C26.1383 22.2206 25.8693 21.4317 25.3501 20.8152C24.8308 20.1987 24.0992 19.7995 23.2998 19.6965C22.5003 19.5935 21.6914 19.7942 21.0328 20.2589L13.9809 13.207L14.2816 12.9035L27.8906 18.3476L30.0371 23.9312L23.9313 30.0371L18.3477 27.8906L12.9035 14.2816ZM22.8867 20.7621C23.3782 20.7628 23.8543 20.9339 24.2338 21.2463C24.6132 21.5586 24.8727 21.9929 24.9679 22.4751C25.0631 22.9573 24.9882 23.4575 24.756 23.8907C24.5237 24.3239 24.1484 24.6631 23.6941 24.8506C23.2398 25.0381 22.7345 25.0623 22.2644 24.9191C21.7942 24.7758 21.3882 24.474 21.1156 24.065C20.8431 23.656 20.7207 23.1652 20.7694 22.6761C20.8181 22.187 21.0349 21.73 21.3828 21.3828C21.7821 20.9848 22.323 20.7615 22.8867 20.7621ZM26.1051 33.5289L24.7379 30.7945L30.7891 24.7433L33.5234 26.1105L26.1051 33.5289Z" fill="#00687B"/>
<path d="M10.459 29.2578C10.3544 29.1589 10.216 29.1038 10.0721 29.1038C9.92818 29.1038 9.78974 29.1589 9.68516 29.2578L8.99063 29.9523C7.13721 27.4368 6.11475 24.4057 6.06573 21.2816C6.01672 18.1574 6.9436 15.0958 8.71719 12.5234C9.24856 12.8158 9.86038 12.9281 10.4609 12.8435C11.0615 12.7589 11.6185 12.482 12.0485 12.0542C12.4784 11.6264 12.7581 11.0708 12.8457 10.4707C12.9333 9.87053 12.8241 9.25816 12.5344 8.72533C15.1068 6.95174 18.1684 6.02486 21.2926 6.07387C24.4167 6.12289 27.4478 7.14535 29.9633 8.99877L29.2578 9.6851C29.1561 9.78763 29.0991 9.92623 29.0992 10.0706C29.0988 10.1426 29.1126 10.214 29.1398 10.2806C29.167 10.3472 29.2071 10.4078 29.2578 10.4589L31.6695 12.8515C31.772 12.9534 31.9106 13.0105 32.0551 13.0105C32.1996 13.0105 32.3382 12.9534 32.4406 12.8515L34.8387 10.4535C34.8895 10.4027 34.9299 10.3424 34.9574 10.276C34.9849 10.2096 34.9991 10.1384 34.9991 10.0665C34.9991 9.99467 34.9849 9.92351 34.9574 9.85712C34.9299 9.79073 34.8895 9.73042 34.8387 9.67963L32.4406 7.28158C32.3382 7.17973 32.1996 7.12255 32.0551 7.12255C31.9106 7.12255 31.772 7.17973 31.6695 7.28158L30.7426 8.20307C28.458 6.48395 25.7571 5.40388 22.9171 5.07375C20.0771 4.74361 17.2004 5.17533 14.5824 6.32455L17.7352 3.18002C18.0926 3.35083 18.4991 3.38949 18.8823 3.28915C19.2656 3.18881 19.6009 2.95595 19.8289 2.63189C20.0568 2.30782 20.1625 1.91349 20.1274 1.51887C20.0922 1.12424 19.9184 0.754831 19.6368 0.476164C19.3552 0.197498 18.9839 0.0275943 18.589 -0.00340417C18.194 -0.0344027 17.8008 0.0755079 17.4792 0.306829C17.1575 0.538149 16.9282 0.875926 16.8319 1.26023C16.7356 1.64454 16.7786 2.05054 16.9531 2.40619L11.632 7.73549C11.0918 7.37308 10.4424 7.20949 9.79494 7.27267C9.14745 7.33585 8.54198 7.62188 8.08196 8.0819C7.62194 8.54192 7.33591 9.14738 7.27273 9.79487C7.20955 10.4424 7.37314 11.0917 7.73555 11.632L2.40625 16.9531C2.04921 16.7791 1.64204 16.7373 1.25711 16.8352C0.872174 16.9331 0.534405 17.1642 0.30382 17.4876C0.0732347 17.811 -0.0352318 18.2057 -0.00230576 18.6015C0.0306203 18.9973 0.202806 19.3686 0.483656 19.6495C0.764505 19.9303 1.13583 20.1025 1.53164 20.1355C1.92745 20.1684 2.32212 20.0599 2.64552 19.8293C2.96891 19.5987 3.20008 19.261 3.29796 18.876C3.39583 18.4911 3.35406 18.0839 3.18008 17.7269L6.33282 14.5824C5.18244 17.1996 4.74937 20.0759 5.07806 22.9159C5.40674 25.7559 6.48535 28.4572 8.20313 30.7425L7.27891 31.6695C7.17705 31.7719 7.11988 31.9105 7.11988 32.055C7.11988 32.1995 7.17705 32.3381 7.27891 32.4406L9.67696 34.8386C9.77905 34.9413 9.9177 34.9993 10.0625 34.9999C10.1347 35 10.2061 34.9858 10.2728 34.9581C10.3394 34.9304 10.3999 34.8898 10.4508 34.8386L12.8516 32.4406C12.9534 32.3381 13.0106 32.1995 13.0106 32.055C13.0106 31.9105 12.9534 31.7719 12.8516 31.6695L10.459 29.2578ZM32.0606 8.43549L33.6848 10.0597L32.0606 11.6839L30.4363 10.0597L32.0606 8.43549ZM18.0469 1.26596C18.1281 1.18403 18.2319 1.12809 18.345 1.10523C18.4581 1.08237 18.5755 1.09363 18.6822 1.13757C18.7889 1.18152 18.8801 1.25616 18.9443 1.35204C19.0085 1.44793 19.0428 1.56072 19.0428 1.67611C19.0428 1.79151 19.0085 1.9043 18.9443 2.00018C18.8801 2.09606 18.7889 2.17071 18.6822 2.21465C18.5755 2.25859 18.4581 2.26985 18.345 2.24699C18.2319 2.22414 18.1281 2.1682 18.0469 2.08627C17.993 2.03243 17.9502 1.96849 17.921 1.89812C17.8919 1.82774 17.8768 1.7523 17.8768 1.67611C17.8768 1.59993 17.8919 1.52449 17.921 1.45411C17.9502 1.38373 17.993 1.3198 18.0469 1.26596ZM8.85938 8.85932C9.01818 8.69975 9.20694 8.57314 9.41481 8.48674C9.62269 8.40034 9.84559 8.35587 10.0707 8.35587C10.2958 8.35587 10.5187 8.40034 10.7266 8.48674C10.9345 8.57314 11.1232 8.69975 11.282 8.85932C11.5221 9.09898 11.6856 9.40446 11.752 9.7371C11.8184 10.0698 11.7846 10.4146 11.6549 10.728C11.5252 11.0415 11.3055 11.3094 11.0235 11.4979C10.7415 11.6864 10.4099 11.787 10.0707 11.787C9.7315 11.787 9.39992 11.6864 9.11792 11.4979C8.83592 11.3094 8.61618 11.0415 8.4865 10.728C8.35681 10.4146 8.32302 10.0698 8.3894 9.7371C8.45577 9.40446 8.61933 9.09898 8.85938 8.85932ZM2.08907 18.8671C1.97742 18.9602 1.83499 19.0082 1.68976 19.0017C1.54453 18.9951 1.40701 18.9345 1.30422 18.8317C1.20142 18.7289 1.14078 18.5913 1.13422 18.4461C1.12766 18.3009 1.17565 18.1585 1.26875 18.0468C1.37818 17.9393 1.52548 17.879 1.67891 17.879C1.83234 17.879 1.97963 17.9393 2.08907 18.0468C2.14297 18.1007 2.18574 18.1646 2.21491 18.235C2.24409 18.3053 2.25911 18.3808 2.25911 18.457C2.25911 18.5332 2.24409 18.6086 2.21491 18.679C2.18574 18.7494 2.14297 18.8133 2.08907 18.8671ZM10.0707 33.6683L8.44649 32.0441L10.0707 30.4199L11.6949 32.0441L10.0707 33.6683Z" fill="#00687B"/>
</g>
<defs>
<clipPath id="clip0_420_830">
<rect width="35" height="35" fill="white"/>
</clipPath>
</defs>
</svg>
