<svg width="35" height="35" viewBox="0 0 35 35" fill="none" xmlns="http://www.w3.org/2000/svg">
<path d="M24.8419 25.7031C24.7701 25.7031 24.699 25.7172 24.6326 25.7447C24.5663 25.7722 24.506 25.8125 24.4552 25.8633C24.4044 25.914 24.3641 25.9743 24.3367 26.0407C24.3092 26.1071 24.2951 26.1782 24.2951 26.25V30.625C24.2947 30.915 24.1794 31.193 23.9744 31.398C23.7693 31.6031 23.4913 31.7184 23.2013 31.7188H9.03705C8.74707 31.7184 8.46906 31.6031 8.26402 31.398C8.05897 31.193 7.94363 30.915 7.9433 30.625V4.375C7.94363 4.08502 8.05897 3.80701 8.26402 3.60197C8.46906 3.39692 8.74707 3.28158 9.03705 3.28125H11.8971L12.3194 4.54804C12.3556 4.65692 12.4252 4.75163 12.5183 4.81873C12.6113 4.88584 12.7232 4.92192 12.8379 4.92188H19.4004C19.5152 4.92192 19.627 4.88583 19.7201 4.81873C19.8132 4.75163 19.8828 4.65692 19.919 4.54804L20.3413 3.28125H23.2013C23.4913 3.28158 23.7693 3.39692 23.9744 3.60197C24.1794 3.80701 24.2947 4.08502 24.2951 4.375V8.75C24.2951 8.89504 24.3527 9.03414 24.4552 9.1367C24.5578 9.23926 24.6969 9.29688 24.8419 9.29688C24.987 9.29688 25.1261 9.23926 25.2286 9.1367C25.3312 9.03414 25.3888 8.89504 25.3888 8.75V4.375C25.3882 3.79503 25.1575 3.23899 24.7474 2.82888C24.3373 2.41878 23.7813 2.18812 23.2013 2.1875H9.03705C8.45708 2.18812 7.90104 2.41878 7.49093 2.82889C7.08083 3.23899 6.85017 3.79503 6.84955 4.375V30.625C6.85017 31.205 7.08083 31.761 7.49093 32.1711C7.90104 32.5812 8.45708 32.8119 9.03705 32.8125H23.2013C23.7813 32.8119 24.3373 32.5812 24.7474 32.1711C25.1575 31.761 25.3882 31.205 25.3888 30.625V26.25C25.3888 26.1782 25.3747 26.1071 25.3472 26.0407C25.3198 25.9743 25.2795 25.914 25.2287 25.8633C25.1779 25.8125 25.1176 25.7722 25.0513 25.7447C24.9849 25.7172 24.9138 25.7031 24.8419 25.7031ZM19.1887 3.28125L19.0063 3.82812H13.2321L13.0497 3.28125H19.1887Z" fill="#00687B"/>
<path d="M13.9317 29.5312C13.7867 29.5312 13.6476 29.5889 13.545 29.6914C13.4424 29.794 13.3848 29.9331 13.3848 30.0781C13.3848 30.2232 13.4424 30.3623 13.545 30.4648C13.6476 30.5674 13.7867 30.625 13.9317 30.625H18.3067C18.4517 30.625 18.5908 30.5674 18.6934 30.4648C18.796 30.3623 18.8536 30.2232 18.8536 30.0781C18.8536 29.9331 18.796 29.794 18.6934 29.6914C18.5908 29.5889 18.4517 29.5312 18.3067 29.5312H13.9317Z" fill="#00687B"/>
<path d="M20.6507 12.0312C20.6502 11.5963 20.4772 11.1793 20.1696 10.8717C19.8621 10.5641 19.445 10.3911 19.0101 10.3906H15.5723C15.1374 10.3911 14.7203 10.5641 14.4128 10.8717C14.1052 11.1793 13.9322 11.5963 13.9317 12.0312V15.4687C13.9322 15.9037 14.1052 16.3207 14.4128 16.6283C14.7203 16.9359 15.1374 17.1089 15.5723 17.1093H19.0101C19.445 17.1089 19.8621 16.9359 20.1696 16.6283C20.4772 16.3207 20.6502 15.9037 20.6507 15.4687V12.0312ZM19.5569 15.4687C19.5568 15.6137 19.4991 15.7527 19.3966 15.8552C19.2941 15.9578 19.1551 16.0154 19.0101 16.0156H15.5723C15.4273 16.0154 15.2883 15.9578 15.1858 15.8552C15.0833 15.7527 15.0256 15.6137 15.0255 15.4687V12.0312C15.0256 11.8863 15.0833 11.7472 15.1858 11.6447C15.2883 11.5422 15.4273 11.4845 15.5723 11.4844H19.0101C19.1551 11.4845 19.2941 11.5422 19.3966 11.6447C19.4991 11.7472 19.5568 11.8863 19.5569 12.0312V15.4687Z" fill="#00687B"/>
<path d="M26.5098 10.3906H23.0721C22.6371 10.3911 22.2201 10.5641 21.9125 10.8717C21.605 11.1793 21.432 11.5963 21.4315 12.0312V15.4687C21.432 15.9037 21.605 16.3207 21.9125 16.6283C22.2201 16.9359 22.6371 17.1089 23.0721 17.1093H26.5098C26.9448 17.1089 27.3618 16.9359 27.6694 16.6283C27.977 16.3207 28.15 15.9037 28.1505 15.4687V12.0312C28.15 11.5963 27.977 11.1793 27.6694 10.8717C27.3618 10.5641 26.9448 10.3911 26.5098 10.3906ZM27.0567 15.4687C27.0566 15.6137 26.9989 15.7527 26.8964 15.8552C26.7938 15.9578 26.6548 16.0154 26.5098 16.0156H23.0721C22.9271 16.0154 22.7881 15.9578 22.6856 15.8552C22.583 15.7527 22.5254 15.6137 22.5252 15.4687V12.0312C22.5254 11.8863 22.583 11.7472 22.6856 11.6447C22.7881 11.5422 22.9271 11.4845 23.0721 11.4844H26.5098C26.6548 11.4845 26.7938 11.5422 26.8964 11.6447C26.9989 11.7472 27.0566 11.8863 27.0567 12.0312V15.4687Z" fill="#00687B"/>
<path d="M20.6507 22.9687V19.5312C20.6502 19.0963 20.4772 18.6793 20.1696 18.3717C19.8621 18.0641 19.445 17.8911 19.0101 17.8906H15.5723C15.1374 17.8911 14.7203 18.0641 14.4128 18.3717C14.1052 18.6793 13.9322 19.0963 13.9317 19.5312V22.9687C13.9322 23.4037 14.1052 23.8207 14.4128 24.1283C14.7203 24.4359 15.1374 24.6089 15.5723 24.6093H19.0101C19.445 24.6089 19.8621 24.4359 20.1696 24.1283C20.4772 23.8207 20.6502 23.4037 20.6507 22.9687ZM15.0255 22.9687V19.5312C15.0256 19.3863 15.0833 19.2472 15.1858 19.1447C15.2883 19.0422 15.4273 18.9845 15.5723 18.9844H19.0101C19.1551 18.9845 19.2941 19.0422 19.3966 19.1447C19.4991 19.2472 19.5568 19.3863 19.5569 19.5312V22.9687C19.5568 23.1137 19.4991 23.2527 19.3966 23.3552C19.2941 23.4578 19.1551 23.5154 19.0101 23.5156H15.5723C15.4273 23.5154 15.2883 23.4578 15.1858 23.3552C15.0833 23.2527 15.0256 23.1137 15.0255 22.9687Z" fill="#00687B"/>
<path d="M26.5098 17.8906H23.0721C22.6371 17.8911 22.2201 18.0641 21.9125 18.3717C21.605 18.6793 21.432 19.0963 21.4315 19.5312V22.9687C21.432 23.4037 21.605 23.8207 21.9125 24.1283C22.2201 24.4359 22.6371 24.6089 23.0721 24.6093H26.5098C26.9448 24.6089 27.3618 24.4359 27.6694 24.1283C27.977 23.8207 28.15 23.4037 28.1505 22.9687V19.5312C28.15 19.0963 27.977 18.6793 27.6694 18.3717C27.3618 18.0641 26.9448 17.8911 26.5098 17.8906ZM27.0567 22.9687C27.0566 23.1137 26.9989 23.2527 26.8964 23.3552C26.7938 23.4578 26.6548 23.5154 26.5098 23.5156H23.0721C22.9271 23.5154 22.7881 23.4578 22.6856 23.3552C22.583 23.2527 22.5254 23.1137 22.5252 22.9687V19.5312C22.5254 19.3863 22.583 19.2472 22.6856 19.1447C22.7881 19.0422 22.9271 18.9845 23.0721 18.9844H26.5098C26.6548 18.9845 26.7938 19.0422 26.8964 19.1447C26.9989 19.2472 27.0566 19.3863 27.0567 19.5312V22.9687Z" fill="#00687B"/>
</svg>
