<svg width="35" height="35" viewBox="0 0 35 35" fill="none" xmlns="http://www.w3.org/2000/svg">
<g clip-path="url(#clip0_420_876)">
<path d="M17.3906 30.8438C17.336 30.8438 17.2266 30.8438 17.1719 30.7891C9.73439 27.5625 9.89845 17.9375 9.95314 17.5547C9.95314 17.2812 10.1719 17.0625 10.5 17.0625C13.6719 17.0625 16.1875 15.3672 16.7891 14.1641C16.8985 13.8906 17.1719 13.7266 17.4453 13.7266C17.7188 13.7266 17.9922 13.8906 18.1016 14.1641C18.7031 15.3672 21.1641 17.0625 24.3906 17.0625C24.6641 17.0625 24.9375 17.2812 24.9375 17.5547C24.9375 17.9375 25.1016 27.5625 17.7188 30.7891C17.5547 30.8438 17.4453 30.8438 17.3906 30.8438ZM10.9922 18.1016C11.0469 20.0703 11.7031 27.125 17.3906 29.75C23.0235 27.125 23.6797 20.0156 23.7891 18.1016C20.8906 17.9375 18.4297 16.5703 17.3906 15.1484C16.3516 16.5703 13.8906 17.9375 10.9922 18.1016Z" fill="#00687B"/>
<path d="M17.3906 28C17.2813 28 17.1719 27.9453 17.1172 27.8906C14.1094 25.9766 13.0156 22.4219 12.6328 19.7969C12.5781 19.5234 12.7969 19.25 13.0156 19.1953C14.5469 18.8672 15.9688 18.2109 17.0625 17.3906C17.2266 17.2266 17.5 17.2266 17.7188 17.3906C18.8672 18.2109 20.2344 18.8672 21.7656 19.1953C22.0391 19.25 22.2031 19.5234 22.1485 19.7969C21.7656 22.4219 20.6719 25.9766 17.6641 27.8906C17.6094 28 17.5 28 17.3906 28ZM13.7266 20.1797C14.1094 22.4219 15.0391 25.2109 17.3906 26.8516C19.6875 25.2109 20.6172 22.4219 21.0547 20.1797C19.6875 19.7969 18.4844 19.25 17.3906 18.5391C16.3516 19.25 15.0938 19.7969 13.7266 20.1797Z" fill="#00687B"/>
<path d="M18.6484 5.96094C18.5391 5.96094 18.4297 5.90625 18.3203 5.85156C18.1016 5.6875 18.0469 5.35938 18.2109 5.08594C18.3203 4.92188 18.375 4.70312 18.375 4.48438C18.375 3.9375 17.9375 3.5 17.3906 3.5C16.8437 3.5 16.4062 3.9375 16.4062 4.48438C16.4062 4.70312 16.4609 4.92188 16.625 5.08594C16.7891 5.30469 16.7344 5.63281 16.5156 5.85156C16.2969 6.01562 15.9687 5.96094 15.75 5.74219C15.4766 5.41406 15.3672 4.97656 15.3672 4.53906C15.3672 3.39063 16.2969 2.46094 17.4453 2.46094C18.5937 2.46094 19.5234 3.39063 19.5234 4.53906C19.5234 4.97656 19.3594 5.41406 19.1406 5.74219C18.9766 5.90625 18.8125 5.96094 18.6484 5.96094Z" fill="#00687B"/>
<path d="M20.8359 9.29682H14C13.7266 9.29682 13.4531 9.07807 13.4531 8.74994V7.43744C13.4531 6.72651 13.8359 6.07026 14.4375 5.68744L14.9297 5.35932C15.3125 5.14057 15.6953 4.97651 16.1328 4.92182C16.3516 4.86713 16.5156 4.97651 16.6797 5.14057C17.0625 5.63276 17.8828 5.63276 18.2656 5.14057C18.375 4.97651 18.5938 4.92182 18.8125 4.92182C19.25 4.97651 19.6328 5.14057 20.0156 5.35932L20.5078 5.68744C21.1094 6.07026 21.4922 6.72651 21.4922 7.43744V8.74994C21.3828 9.02338 21.1641 9.29682 20.8359 9.29682ZM14.4922 8.20307H20.2891V7.38276C20.2891 7.05463 20.125 6.72651 19.8516 6.56244L19.3594 6.23432C19.1953 6.12494 19.0313 6.07026 18.8125 5.96088C18.4297 6.34369 17.9375 6.50776 17.3906 6.50776C16.8437 6.50776 16.3516 6.28901 15.9688 5.96088C15.8047 6.01557 15.5859 6.12494 15.4219 6.23432L14.9844 6.56244C14.7109 6.72651 14.5469 7.05463 14.5469 7.38276V8.20307H14.4922Z" fill="#00687B"/>
<path d="M17.3906 12.25C17.1172 12.25 16.8438 12.0312 16.8438 11.7031V10.1719C16.8438 9.89844 17.0625 9.625 17.3906 9.625C17.7188 9.625 17.9375 9.84375 17.9375 10.1719V11.7031C17.9375 12.0312 17.7188 12.25 17.3906 12.25Z" fill="#00687B"/>
<path d="M5.19531 29.0937C5.08594 29.0937 4.97656 29.0391 4.86719 28.9844C4.64844 28.8203 4.59375 28.4922 4.75781 28.2187C4.92188 28.0547 4.97656 27.8906 4.97656 27.6719C4.97656 27.125 4.53906 26.6875 3.99219 26.6875C3.44531 26.6875 3.00781 27.125 3.00781 27.6719C3.00781 27.8906 3.0625 28.1094 3.22656 28.2734C3.39063 28.4922 3.33594 28.8203 3.11719 29.0391C2.89844 29.2031 2.57031 29.1484 2.35156 28.9297C2.07813 28.6016 1.96875 28.1641 1.96875 27.7266C1.96875 26.5781 2.89844 25.6484 4.04688 25.6484C5.19531 25.6484 6.125 26.5781 6.125 27.7266C6.125 28.1641 5.96094 28.6016 5.74219 28.9297C5.52344 28.9844 5.35938 29.0937 5.19531 29.0937Z" fill="#00687B"/>
<path d="M7.4375 32.3749H0.546875C0.273438 32.3749 0 32.1562 0 31.8281V30.5156C0 29.8046 0.382812 29.1484 0.984375 28.7656L1.47656 28.4374C1.85938 28.2187 2.24219 28.0546 2.67969 27.9999C2.89844 27.9453 3.0625 28.0546 3.22656 28.2187C3.60938 28.7109 4.42969 28.7109 4.8125 28.2187C4.92188 28.0546 5.14062 27.9999 5.35938 27.9999C5.79688 28.0546 6.17969 28.2187 6.5625 28.4374L7.05469 28.7656C7.65625 29.1484 8.03906 29.8046 8.03906 30.5156V31.8281C7.92969 32.1562 7.71094 32.3749 7.4375 32.3749ZM1.03906 31.3359H6.83594V30.5156C6.83594 30.1874 6.67188 29.8593 6.39844 29.6953L5.90625 29.3671C5.74219 29.2578 5.57812 29.2031 5.35938 29.0937C4.97656 29.4765 4.48438 29.6406 3.9375 29.6406C3.39062 29.6406 2.89844 29.4218 2.51562 29.0937C2.35156 29.1484 2.13281 29.2578 1.96875 29.3671L1.47656 29.6953C1.20312 29.8593 1.03906 30.1874 1.03906 30.5156V31.3359Z" fill="#00687B"/>
<path d="M6.50781 26.5781C6.39844 26.5781 6.23438 26.5234 6.125 26.4141C5.90625 26.1953 5.90625 25.8672 6.125 25.6484L7.49219 24.2812C7.71094 24.0625 8.03906 24.0625 8.25781 24.2812C8.47656 24.5 8.47656 24.8281 8.25781 25.0469L6.89063 26.4141C6.78125 26.5234 6.67187 26.5781 6.50781 26.5781Z" fill="#00687B"/>
<path d="M29.8047 29.2031C29.6406 29.2031 29.4766 29.1484 29.3672 28.9844C29.0938 28.6562 28.9844 28.2187 28.9844 27.7812C28.9844 26.6328 29.9141 25.7031 31.0625 25.7031C32.2109 25.7031 33.1406 26.6328 33.1406 27.7812C33.1406 28.2187 32.9766 28.6562 32.7578 28.9844C32.5938 29.2031 32.2656 29.2578 31.9922 29.0938C31.7734 28.9297 31.7187 28.6016 31.8828 28.3281C31.9922 28.1641 32.1016 27.9453 32.1016 27.7266C32.1016 27.1797 31.6641 26.7422 31.1172 26.7422C30.5703 26.7422 30.1328 27.1797 30.1328 27.7266C30.1328 27.9453 30.1875 28.1641 30.2969 28.3281C30.4609 28.5469 30.4063 28.875 30.1875 29.0938C30.0234 29.1484 29.9141 29.2031 29.8047 29.2031Z" fill="#00687B"/>
<path d="M34.4531 32.4843H27.5625C27.2891 32.4843 27.0156 32.2656 27.0156 31.9374V30.6249C27.0156 29.914 27.3984 29.2578 28 28.8749L28.4922 28.5468C28.875 28.3281 29.2578 28.164 29.6953 28.1093C29.9141 28.0546 30.0781 28.164 30.2422 28.3281C30.4062 28.6015 30.7344 28.7109 31.0625 28.7109C31.3906 28.7109 31.6641 28.5468 31.8828 28.3281C31.9922 28.164 32.2109 28.1093 32.4297 28.1093C32.8672 28.164 33.25 28.3281 33.6328 28.5468L34.125 28.8749C34.7266 29.2578 35.1094 29.914 35.1094 30.6249V31.9374C35 32.2656 34.7812 32.4843 34.4531 32.4843ZM28.1094 31.4453H33.9062V30.6249C33.9062 30.2968 33.7422 29.9687 33.4687 29.8046L32.9766 29.5312C32.8125 29.4218 32.6484 29.3671 32.4297 29.2578C32.0469 29.6406 31.5547 29.8046 31.0078 29.8046C30.4609 29.8046 29.9687 29.5859 29.5859 29.2578C29.4219 29.3124 29.2031 29.4218 29.0391 29.5312L28.5469 29.8593C28.2734 30.0234 28.1094 30.3515 28.1094 30.6796V31.4453Z" fill="#00687B"/>
<path d="M28.4922 26.6875C28.3828 26.6875 28.2188 26.6328 28.1094 26.5234L26.7422 25.1563C26.5234 24.9375 26.5234 24.6094 26.7422 24.3906C26.9609 24.1719 27.2891 24.1719 27.5078 24.3906L28.875 25.7578C29.0937 25.9766 29.0937 26.3047 28.875 26.5234C28.7109 26.6328 28.6016 26.6875 28.4922 26.6875Z" fill="#00687B"/>
</g>
<defs>
<clipPath id="clip0_420_876">
<rect width="35" height="35" fill="white"/>
</clipPath>
</defs>
</svg>
